<svg xmlns="http://www.w3.org/2000/svg" xmlns:xlink="http://www.w3.org/1999/xlink" viewBox="0 0 817.62 565.52"><defs><style>.cls-1{fill:none;}.cls-2{isolation:isolate;}.cls-3{fill:#fff;}.cls-4{clip-path:url(#clip-path);}.cls-5{fill:#4855a9;}.cls-6{fill:#1e2975;}.cls-7{fill:#d2d1fc;}.cls-8{fill:#ffa8b9;}.cls-9{fill:#a4a3fc;}.cls-10{fill:#45314a;}.cls-11{fill:#fa9778;}.cls-12{fill:#fa7c55;}.cls-13{fill:#ffd592;}.cls-14{mix-blend-mode:multiply;}.cls-15{clip-path:url(#clip-path-2);}.cls-16{fill:#f7bb8b;}.cls-17{fill:#c25b3e;}.cls-18{fill:#eba771;}.cls-19{fill:#dcf2f2;}.cls-20{fill:#e4f5f5;}.cls-21{fill:#450d20;}.cls-22{fill:#f28e6f;}.cls-23{fill:#ed8d5d;}.cls-24{fill:#994831;}.cls-25{fill:#db6a3d;}.cls-26{fill:#ffc9d3;}.cls-27{fill:#cc6f49;}.cls-28{fill:#dcdcf2;}.cls-29{fill:#c4533a;}.cls-30{fill:#1c1c1b;}</style><clipPath id="clip-path" transform="translate(0 32.76)"><rect class="cls-1" width="750" height="500"/></clipPath><clipPath id="clip-path-2" transform="translate(0 32.76)"><polygon class="cls-1" points="192.12 138.98 199.2 385.57 118.26 349.59 100.12 350.48 100.09 337.09 99.97 284.55 99.87 240.97 99.75 188.1 99.69 161.81 99.62 130.23 128.53 132.97 152.61 135.24 192.12 138.98"/></clipPath></defs><g class="cls-2"><g id="BACKGROUND"><rect class="cls-3" y="32.76" width="750" height="500"/></g><g id="OBJECTS"><g class="cls-4"><path class="cls-5" d="M102,293.25c-3.83-5.76-8.49-10.94-12.34-16.69-7.39-11-11.62-23.82-16.84-36-4.67-10.93-12.61-23.06-24.49-22.85-10.41.18-18.07,10.25-20.86,20.28a50.91,50.91,0,0,0,7.75,42.94c7.59,10.43,18.8,17.48,29.12,25.2s20.42,17,24,29.42c1.87,6.42,1.91,13.44,5.08,19.32,2.63,4.89,10.4,10.08,15.38,5.69,3.78-3.34,4.35-16.07,4.77-20.71A72.89,72.89,0,0,0,102,293.25Z" transform="translate(0 32.76)"/><path class="cls-5" d="M104.68,330.52c4.24-.84,5.42-6.29,5.39-10.61a94.69,94.69,0,0,0-3.3-24.2c-3.32-12.26-9.15-24.13-9.15-36.83,0-5.66,1.18-11.24,2.18-16.81,2.16-12,3.54-24.27,1.44-36.24s-8.06-23.69-18.1-30.54c-4.34-3-9.51-5-14.74-4.63S57.94,174,55.89,178.84c-3.31,7.81,2.27,16.31,7.36,23.1q5.48,7.29,10.63,14.8c2.63,3.83,5.23,7.76,6.72,12.16,3.68,10.85.15,22.64-.77,34.06a75.11,75.11,0,0,0,19.7,56.57Z" transform="translate(0 32.76)"/><path class="cls-5" d="M46.41,177.52q.56,6.64,1.1,13.29a2.31,2.31,0,0,1-.22,1.54A1.93,1.93,0,0,1,46,193a6.53,6.53,0,0,1-6.33-3,13.59,13.59,0,0,1-2-7,11.93,11.93,0,0,1,.66-5.44,5.46,5.46,0,0,1,4-3.42,3.58,3.58,0,0,1,4,2.88" transform="translate(0 32.76)"/><path class="cls-3" d="M80,258.05a34.21,34.21,0,0,1,3.5,4.28,40,40,0,0,1,2.87,4.75,39.43,39.43,0,0,1,2.17,5.1,32.84,32.84,0,0,1,1.42,5.34c-.62-1.73-1.25-3.45-2-5.14s-1.46-3.34-2.3-5-1.73-3.21-2.68-4.78S81,259.56,80,258.05Z" transform="translate(0 32.76)"/><path class="cls-3" d="M47.71,221.74A53,53,0,0,0,47.3,231a59.93,59.93,0,0,0,1.28,9.16A73.9,73.9,0,0,0,51.19,249a91,91,0,0,0,3.7,8.48C60.4,268.57,68.15,278.3,75.83,288c3.83,4.85,7.66,9.72,11.25,14.78,1.78,2.53,3.51,5.11,5.14,7.75s3.12,5.36,4.49,8.15,2.57,5.65,3.63,8.57a73,73,0,0,1,2.54,8.95A62.06,62.06,0,0,1,104,345.4a53.1,53.1,0,0,1-.59,9.26,52,52,0,0,0,.4-9.25,60.27,60.27,0,0,0-1.28-9.16,73.83,73.83,0,0,0-2.63-8.86,91,91,0,0,0-3.7-8.48c-5.52-11.06-13.27-20.8-21-30.47-3.83-4.86-7.66-9.73-11.25-14.78-1.78-2.54-3.51-5.11-5.14-7.75s-3.11-5.37-4.48-8.16a92,92,0,0,1-3.62-8.57,73,73,0,0,1-2.53-9,61,61,0,0,1-1.1-9.23A53.1,53.1,0,0,1,47.71,221.74Z" transform="translate(0 32.76)"/><path class="cls-3" d="M28.24,242.58a77.44,77.44,0,0,0,6.69,8.2A73.73,73.73,0,0,0,51.4,263.89a77.43,77.43,0,0,0,9.5,4.67,55,55,0,0,1-9.78-4.17,60.69,60.69,0,0,1-16.61-13.22A56.54,56.54,0,0,1,28.24,242.58Z" transform="translate(0 32.76)"/><path class="cls-3" d="M42.48,287.76c3.39,1.56,6.81,3,10.28,4.36s7,2.57,10.55,3.61,7.16,2,10.79,2.81,7.29,1.46,11,2A94.47,94.47,0,0,1,74,299.1c-3.67-.69-7.3-1.61-10.89-2.65s-7.1-2.34-10.54-3.79A97.48,97.48,0,0,1,42.48,287.76Z" transform="translate(0 32.76)"/><path class="cls-3" d="M88.67,331.33a25.05,25.05,0,0,1,4,1.09,29.19,29.19,0,0,1,3.8,1.67,30.37,30.37,0,0,1,3.53,2.17,25.21,25.21,0,0,1,3.16,2.67c-1.16-.74-2.31-1.49-3.48-2.18s-2.35-1.38-3.56-2-2.42-1.22-3.66-1.8S89.94,331.87,88.67,331.33Z" transform="translate(0 32.76)"/><path class="cls-3" d="M65.46,229.9c.94,4.84,1.91,9.67,3,14.47s2.29,9.59,3.64,14.32c.65,2.38,1.32,4.75,2,7.1s1.49,4.71,2,7.13a29.1,29.1,0,0,1,.86,7.38,16.47,16.47,0,0,1-1.77,7.17,16.91,16.91,0,0,0,1.41-7.17,28.68,28.68,0,0,0-1.07-7.24c-.63-2.37-1.39-4.71-2.13-7.07s-1.44-4.72-2.12-7.1c-1.29-4.76-2.48-9.56-3.47-14.39S66.09,234.79,65.46,229.9Z" transform="translate(0 32.76)"/><path class="cls-3" d="M95.51,290.11A58.6,58.6,0,0,1,98,298.29a70.78,70.78,0,0,1,1.42,8.46,72.12,72.12,0,0,1,.29,8.57,59.28,59.28,0,0,1-.86,8.51c.19-2.84.31-5.68.28-8.52a83,83,0,0,0-.46-8.49,82.31,82.31,0,0,0-1.23-8.41C97,295.62,96.27,292.86,95.51,290.11Z" transform="translate(0 32.76)"/><path class="cls-3" d="M60.39,177.51a41.29,41.29,0,0,1,14.4,7,41.88,41.88,0,0,1,10.7,11.95,40.27,40.27,0,0,1,3.39,7.33,51.15,51.15,0,0,1,2,7.82,84,84,0,0,1,.93,16.07c-.25,10.72-1.73,21.4-.54,32,.11,1.33.34,2.64.52,4s.44,2.63.79,3.92A45.08,45.08,0,0,0,95,275.14a35.74,35.74,0,0,0,3.88,7,31.81,31.81,0,0,0,5.52,5.78,32,32,0,0,1-5.67-5.67,36.19,36.19,0,0,1-4.07-6.93,45.64,45.64,0,0,1-2.57-7.63c-.37-1.29-.57-2.62-.85-3.94s-.45-2.65-.57-4a94.91,94.91,0,0,1-.38-16.08c.24-5.35.63-10.69.74-16a83.13,83.13,0,0,0-.85-15.93A51,51,0,0,0,88.27,204a41.36,41.36,0,0,0-27.88-26.45Z" transform="translate(0 32.76)"/><path class="cls-3" d="M59.73,190.74A42.37,42.37,0,0,0,68,195.21a74.11,74.11,0,0,1,8.49,4.17,43.23,43.23,0,0,1,7.32,6c2.24,2.21,4.44,4.44,6.6,6.73-2.37-2.06-4.68-4.19-7-6.31a47.71,47.71,0,0,0-7.32-5.8,88.59,88.59,0,0,0-8.35-4.28A33.91,33.91,0,0,1,59.73,190.74Z" transform="translate(0 32.76)"/><path class="cls-3" d="M82.33,179.12a102.77,102.77,0,0,1,5.73,8.65,50.05,50.05,0,0,1,4.31,9.48,31.66,31.66,0,0,1,1.51,10.31,21.85,21.85,0,0,1-2.63,10,24.25,24.25,0,0,0,2-10,32.88,32.88,0,0,0-1.64-10.08,53.13,53.13,0,0,0-4.11-9.42C85.93,185,84.11,182.08,82.33,179.12Z" transform="translate(0 32.76)"/><path class="cls-3" d="M77.16,216.56a55.82,55.82,0,0,1,4,6,67.09,67.09,0,0,1,3.21,6.47c.94,2.21,1.7,4.51,2.54,6.73a12.85,12.85,0,0,0,3.9,5.84,8.88,8.88,0,0,1-2.66-2.45A18.26,18.26,0,0,1,86.32,236c-.51-1.1-.9-2.24-1.33-3.35s-.89-2.22-1.36-3.31c-.91-2.21-1.95-4.36-3-6.49S78.35,218.65,77.16,216.56Z" transform="translate(0 32.76)"/><path class="cls-3" d="M98.78,230.66a54.85,54.85,0,0,1-.44,9.41,62,62,0,0,1-2,9.24c-.91,3-2.13,5.92-3,8.9a19.16,19.16,0,0,0-.83,9.2,14.15,14.15,0,0,1-.51-4.68,24.73,24.73,0,0,1,.78-4.68c.81-3.06,2-6,2.87-9A69.15,69.15,0,0,0,97.77,240,83.15,83.15,0,0,0,98.78,230.66Z" transform="translate(0 32.76)"/><path class="cls-6" d="M90,128.36V346.05a15.92,15.92,0,0,0,14.37,16l1.13.07c12.18.43,58.75-3.3,70.7-4.28a13.94,13.94,0,0,0,8.31-3.57c2.91-2.68,6-7.33,6.49-15.2V136.14s1-12.52-14-15l-68.41-7.51a18.15,18.15,0,0,0-13.62,3.93l-.67.59A13.94,13.94,0,0,0,90,128.36Z" transform="translate(0 32.76)"/><path class="cls-5" d="M94.62,128.88V346.12a15.9,15.9,0,0,0,14.36,16c.37,0,.75.06,1.14.07,12.17.44,58.75-3.29,70.7-4.27a13.89,13.89,0,0,0,8.31-3.56c2.91-2.67,6-7.31,6.49-15.17V136.65s1-12.5-14-15l-68.41-7.5a18.19,18.19,0,0,0-13.62,3.93c-.23.19-.45.38-.67.59A13.88,13.88,0,0,0,94.62,128.88Z" transform="translate(0 32.76)"/><polygon class="cls-7" points="192.12 169.66 192.12 376.66 118.26 380.27 100.12 381.16 100.09 367.77 99.97 315.23 99.87 271.65 99.75 218.78 99.69 192.49 99.62 160.91 128.53 163.65 152.61 165.92 192.12 169.66"/><path class="cls-6" d="M156.12,126.32H156l-16.5-1.5a1,1,0,1,1,.18-2l16.5,1.5a1,1,0,0,1-.09,2Z" transform="translate(0 32.76)"/><path class="cls-7" d="M707.22-32.75C665.16-32.2,626.08-11.09,593.93,15s-59.24,57.46-90.76,84.25S433.92,148.73,392,152.07c-33.81,2.69-67.09-7.37-99.95-15.49-31.22-7.71-69-8.26-99.93.27L188.29,250.1l3.83,93.75c44.18,30.78,80.6,80.68,126.39,109.18,49.29,30.67,111.67,28.6,169.37,22.19s117.63-15.92,172.62,2.7c26.45,8.95,50.33,24,75.48,36.16S788.9,535.62,816.59,532l1-516.39C788.77-13.22,748.8-33.3,707.22-32.75Z" transform="translate(0 32.76)"/><path class="cls-7" d="M486.39,96.11c10.36-9.35,18.75-21.45,21.26-35.17.81-4.41.93-9.25-1.45-13-3.54-5.65-11.31-7-17.91-6-13.59,2-25.28,11.54-32.45,23.27s-10.29,25.49-11.77,39.16C440.9,133.57,478.06,103.62,486.39,96.11Z" transform="translate(0 32.76)"/><path class="cls-7" d="M419.7,108a19.48,19.48,0,0,1,2.61-5.17,6.52,6.52,0,0,1,4.95-2.68,7.31,7.31,0,0,1,4.75,2.29,16.27,16.27,0,0,1,3.87,16.92,18.49,18.49,0,0,1-13.33,11.48,20.41,20.41,0,0,1-8.63,0c-3.25-.7-2-2.63-1-5.11Z" transform="translate(0 32.76)"/></g><path class="cls-3" d="M499.64,140.5h84.89a3.31,3.31,0,0,0-1.76-1.86c-1.57-.64-3.35-.27-5,0s-3.59.22-4.82-.94-1.45-3.44-2.86-4.58c-2.73-2.23-6.95,1.46-10.22.16s-3.54-6.6-6.92-7.44c-3.1-.77-5.91,3-9,2.44-1.74-.34-3-2-3.49-3.68s-.61-3.5-1-5.22a12,12,0,0,0-23.28.37c-.46,2-.37,4.18-.8,6.23s-1.54,4.16-3.5,4.9c-2.66,1-5.55-.85-8.39-.71a5.95,5.95,0,0,0-3.72,10.38Z" transform="translate(0 32.76)"/><path class="cls-3" d="M399.43,234.73h76.86a3,3,0,0,0-1.6-1.68c-1.42-.58-3-.25-4.55-.05s-3.25.2-4.37-.85-1.31-3.11-2.59-4.15c-2.47-2-6.29,1.33-9.25.15s-3.21-6-6.26-6.74c-2.81-.7-5.36,2.76-8.2,2.21a4.61,4.61,0,0,1-3.16-3.33c-.5-1.53-.55-3.17-.95-4.73a10.85,10.85,0,0,0-21.08.34c-.41,1.85-.34,3.78-.73,5.64s-1.39,3.76-3.16,4.43c-2.41.92-5-.76-7.6-.64a5.38,5.38,0,0,0-3.36,9.4Z" transform="translate(0 32.76)"/><path class="cls-3" d="M712.92,120.67H636a3.37,3.37,0,0,1-2.06-6,6.24,6.24,0,0,1,4.51-1.22c1.76.25,3.54,1.18,5.21.58,2.87-1,2.77-5.52,5.33-7.18s6.18.46,8.22,2.25a8.39,8.39,0,0,0,3.8,2c7.41,1.56,7.76-10.07,14-11.14,4.42-.76,7.63,4.56,12.06,5.32,4.18.72,7.85-2.79,10.16-6.34,2.77-4.26,5.1-9.37,10.64-10.33a10.58,10.58,0,0,1,8.59,2.48c4.85,4.08,5.78,10.81,4.41,16.7a40.3,40.3,0,0,1-5,11.27A3.38,3.38,0,0,1,712.92,120.67Z" transform="translate(0 32.76)"/><path class="cls-3" d="M255.1,161.67h-36a1.58,1.58,0,0,1-1-2.83,2.93,2.93,0,0,1,2.12-.56c.82.11,1.65.55,2.43.27,1.34-.49,1.29-2.58,2.49-3.36s2.89.22,3.84,1.05a3.94,3.94,0,0,0,1.78.94c3.46.73,3.62-4.71,6.52-5.2,2.07-.36,3.57,2.12,5.64,2.48s3.67-1.3,4.75-3c1.29-2,2.38-4.38,5-4.83a5,5,0,0,1,4,1.16c2.27,1.9,2.7,5,2.06,7.8a18.75,18.75,0,0,1-2.31,5.27A1.58,1.58,0,0,1,255.1,161.67Z" transform="translate(0 32.76)"/><path class="cls-5" d="M463,315.61c-2.83-4.25-6.26-8.06-9.1-12.3-5.46-8.14-8.58-17.56-12.42-26.57-3.44-8.05-9.3-17-18.06-16.85-7.67.14-13.32,7.56-15.38,14.95a37.58,37.58,0,0,0,5.72,31.67c5.59,7.68,13.86,12.88,21.47,18.58s15.06,12.56,17.71,21.69c1.38,4.73,1.4,9.9,3.74,14.24,1.94,3.61,7.67,7.43,11.34,4.19,2.79-2.45,3.21-11.84,3.52-15.26A53.74,53.74,0,0,0,463,315.61Z" transform="translate(0 32.76)"/><path class="cls-5" d="M443.88,271l0,0a2.59,2.59,0,0,0,4.82-.85,7.44,7.44,0,0,0-.14-2.82c-.57-2.27-4.14-7.19-7-5.46S442.86,269.14,443.88,271Z" transform="translate(0 32.76)"/><path class="cls-5" d="M463.93,340.65c1.67-7.93,6.05-15.44,12.74-20,3.75-2.55,8.17-4.19,11.34-7.42,6.16-6.27,5.77-16.19,7.92-24.7.47-1.85,1.2-3.82,2.86-4.76a6.69,6.69,0,0,1,4.38-.43,22.41,22.41,0,0,1,12.48,37.74c-6,6.2-15.09,8.45-21.77,13.94-4.64,3.83-7.93,9.08-10.3,14.61-1.85,4.31-3.25,8.94-6.28,12.51-3.57,4.22-10.52,7-12.49.61A45.81,45.81,0,0,1,463.93,340.65Z" transform="translate(0 32.76)"/><circle class="cls-5" cx="450.25" cy="307.71" r="2"/><path class="cls-3" d="M464,365.24A24.58,24.58,0,0,1,456.28,353a61.37,61.37,0,0,1-2.13-14.51A130.5,130.5,0,0,0,453,323.91a31.41,31.41,0,0,0-5.27-13.35,71.66,71.66,0,0,0-9.86-10.69,102.72,102.72,0,0,1-10.17-10.58,37.89,37.89,0,0,1-7-12.83,24.13,24.13,0,0,1,0-14.47,23.94,23.94,0,0,0,.34,14.36,37.71,37.71,0,0,0,7.14,12.58,114.15,114.15,0,0,0,10.19,10.45,71.91,71.91,0,0,1,10,10.76,32,32,0,0,1,5.33,13.66,120,120,0,0,1,1.08,14.64,61,61,0,0,0,1.9,14.43A24.49,24.49,0,0,0,464,365.24Z" transform="translate(0 32.76)"/><path class="cls-3" d="M409.87,273.61a31.16,31.16,0,0,0,3.64,7.82,32.34,32.34,0,0,0,20.77,14.19,25.81,25.81,0,0,1-8.4-2.3A29.32,29.32,0,0,1,413,281.73,25.49,25.49,0,0,1,409.87,273.61Z" transform="translate(0 32.76)"/><path class="cls-3" d="M414.34,302a30.52,30.52,0,0,0,8.58,5.79,65.39,65.39,0,0,0,9.76,3.56c3.33,1,6.71,1.88,10,3a42.66,42.66,0,0,1,9.51,4.37,54.52,54.52,0,0,0-9.69-3.82c-3.32-1-6.69-1.88-10-2.84a60.22,60.22,0,0,1-9.8-3.76A26.9,26.9,0,0,1,414.34,302Z" transform="translate(0 32.76)"/><path class="cls-3" d="M433.79,269.38a20.37,20.37,0,0,0,.67,10,45.48,45.48,0,0,0,4.07,9.24c1.6,3,3.37,5.89,4.82,9a28.54,28.54,0,0,1,2.86,9.78,33.08,33.08,0,0,0-3.38-9.52c-1.54-3-3.29-5.91-5-8.88a43.51,43.51,0,0,1-4-9.44,23.72,23.72,0,0,1-.76-5.08A16.31,16.31,0,0,1,433.79,269.38Z" transform="translate(0 32.76)"/><path class="cls-3" d="M458,315.12a16.52,16.52,0,0,1,1.47,6.77,29.28,29.28,0,0,1-.8,6.92c-.56,2.26-1.24,4.47-2,6.65s-1.48,4.36-2.12,6.57a55.81,55.81,0,0,1,1.57-6.74c.62-2.22,1.31-4.41,1.8-6.65a32.11,32.11,0,0,0,.95-6.75A20,20,0,0,0,458,315.12Z" transform="translate(0 32.76)"/><path class="cls-3" d="M466.06,365.79a29.22,29.22,0,0,1-3.8-9.13,32.93,32.93,0,0,1,1.49-19.59,29.24,29.24,0,0,1,5.13-8.44,34.39,34.39,0,0,0-4.59,8.65,36.56,36.56,0,0,0-1.47,19.26A34.63,34.63,0,0,0,466.06,365.79Z" transform="translate(0 32.76)"/><path class="cls-3" d="M470.5,366.06a21.35,21.35,0,0,1-1.7-11.55,31.25,31.25,0,0,1,3.69-11.21c3.84-7,9.65-12.49,15.11-18.07a102.74,102.74,0,0,0,7.89-8.69,42.27,42.27,0,0,0,6-10,26.36,26.36,0,0,0,2-11.41,18.85,18.85,0,0,0-3.85-10.88,19.06,19.06,0,0,1,4.21,10.86A26.84,26.84,0,0,1,502,306.78,40.94,40.94,0,0,1,496,317a103,103,0,0,1-7.89,8.79c-5.53,5.55-11.27,11-15.15,17.83a30.86,30.86,0,0,0-3.83,11A21.06,21.06,0,0,0,470.5,366.06Z" transform="translate(0 32.76)"/><path class="cls-3" d="M518.61,299.49a32.06,32.06,0,0,0-5.85,5.67c-1.74,2.09-3.39,4.27-5.17,6.38A29.12,29.12,0,0,1,501.4,317a17,17,0,0,1-3.76,1.77,12.05,12.05,0,0,1-4.08.56,15.05,15.05,0,0,0,7.52-2.81,30.63,30.63,0,0,0,5.94-5.49c1.81-2,3.45-4.23,5.31-6.27A25.46,25.46,0,0,1,518.61,299.49Z" transform="translate(0 32.76)"/><path class="cls-3" d="M502.46,326.11a17.53,17.53,0,0,0-8.16,3.64,56.67,56.67,0,0,0-6.58,6.21,40.16,40.16,0,0,1-6.93,6,19.29,19.29,0,0,1-4.15,2,12.9,12.9,0,0,1-4.52.61,16.08,16.08,0,0,0,8.36-3.07,43.51,43.51,0,0,0,6.7-6,50.8,50.8,0,0,1,6.78-6.15,21.68,21.68,0,0,1,4-2.22A13.82,13.82,0,0,1,502.46,326.11Z" transform="translate(0 32.76)"/><path class="cls-3" d="M474.39,324.76c-.95,2.3-1.87,4.6-2.7,6.93s-1.64,4.67-2.3,7.05a61.07,61.07,0,0,0-1.79,7.17,10,10,0,0,0,0,3.62,6.53,6.53,0,0,0,1.56,3.26l0,0,.07-.45,0,.45v.06l-.05,0a6.36,6.36,0,0,1-1.9-3.21,10.47,10.47,0,0,1-.22-3.78,26.72,26.72,0,0,1,.71-3.69c.29-1.21.6-2.42.95-3.62.73-2.38,1.53-4.75,2.49-7A61.89,61.89,0,0,1,474.39,324.76Z" transform="translate(0 32.76)"/><path class="cls-5" d="M647.08,338.36c4.71-8.72,12.32-15.44,19.67-22.08s14.79-13.64,18.94-22.63c1.45-3.13,2.48-6.48,4.45-9.3s5.18-5.13,8.6-4.78c4.18.42,7,4.44,8.67,8.29,3.25,7.49,4.34,16.28,1.14,23.8-4.17,9.79-14.41,15.3-23.84,20.25-11.62,6.1-23.92,13.34-29,25.47-3,7.19-8,14.66-11.83,3.29C641.48,353.54,643.63,344.76,647.08,338.36Z" transform="translate(0 32.76)"/><path class="cls-5" d="M641.54,331.39c1.72-9.38,5.79-18.15,8.79-27.2s4.94-18.92,2.29-28.09c-1.71-5.89-5.2-11.08-8.15-16.46-1.52-2.77-2.93-6.15-1.5-9a7.25,7.25,0,0,1,3.78-3.19c6.69-2.75,14.37,1.32,19.16,6.73a36.77,36.77,0,0,1,9,21.21c1.26,15.43-7.2,29.71-13,44.06a135.12,135.12,0,0,0-7,23c-1.36,6.52-.5,16.07-4.21,21.74-4.82,7.37-7.45-5.43-8.39-9.26A56.29,56.29,0,0,1,641.54,331.39Z" transform="translate(0 32.76)"/><path class="cls-5" d="M693.89,277.28a2.06,2.06,0,0,0-.31-1.17,1.66,1.66,0,0,0-1.13-.61,3.17,3.17,0,0,0-3,1.53c-.53.82-1.13,2.33-.4,3.2s1.84.4,2.66-.08C693,279.44,693.94,278.86,693.89,277.28Z" transform="translate(0 32.76)"/><circle class="cls-5" cx="690.68" cy="306.21" r="1.25"/><path class="cls-3" d="M661.48,321.71a77.44,77.44,0,0,0-6.24,7.77,69.37,69.37,0,0,0-5.13,8.51,70.07,70.07,0,0,0-3.94,9.12,79.36,79.36,0,0,0-2.71,9.59,53.81,53.81,0,0,1,2.16-9.77,59.45,59.45,0,0,1,9.15-17.79A55.06,55.06,0,0,1,661.48,321.71Z" transform="translate(0 32.76)"/><path class="cls-3" d="M644.55,350a117.69,117.69,0,0,1,.47-13.14,114.17,114.17,0,0,1,2.07-13,107.07,107.07,0,0,1,3.59-12.68c1.44-4.16,3.17-8.19,4.74-12.27a74.54,74.54,0,0,0,3.93-12.47,38.7,38.7,0,0,0,.45-13A39.77,39.77,0,0,0,656,261.05a40.87,40.87,0,0,0-3.37-5.61,42.17,42.17,0,0,0-4.28-5,38.75,38.75,0,0,1,8,10.41,40.51,40.51,0,0,1,4.07,12.52,37.9,37.9,0,0,1-.36,13.18,75.44,75.44,0,0,1-3.9,12.61c-1.6,4.09-3.35,8.1-4.8,12.23A118.92,118.92,0,0,0,644.55,350Z" transform="translate(0 32.76)"/><path class="cls-3" d="M660.83,252c.88,2.76,1.68,5.55,2.33,8.39a52.16,52.16,0,0,1,1.25,8.64,32.75,32.75,0,0,1-.75,8.72,21.91,21.91,0,0,1-3.55,7.94,25.79,25.79,0,0,0,3-8.06,34.16,34.16,0,0,0,.57-8.56,59,59,0,0,0-1.06-8.57C662.07,257.62,661.41,254.8,660.83,252Z" transform="translate(0 32.76)"/><path class="cls-3" d="M646.87,315.76c.21,1.19.3,2.34.43,3.49s.24,2.29.25,3.5a9,9,0,0,1-1-3.43A8.77,8.77,0,0,1,646.87,315.76Z" transform="translate(0 32.76)"/><path class="cls-3" d="M648.41,364.38a34.08,34.08,0,0,1,0-6.06,38.9,38.9,0,0,1,1.18-5.95,44.38,44.38,0,0,1,2.16-5.69,57.61,57.61,0,0,1,2.89-5.36c4.27-6.94,10.12-12.69,15.92-18.28s11.84-11,16.7-17.44c1.21-1.61,2.36-3.26,3.41-5a53.23,53.23,0,0,0,2.83-5.33,41.65,41.65,0,0,0,2.08-5.66,37.2,37.2,0,0,0,1.09-5.94,36.72,36.72,0,0,1-.91,6,43.76,43.76,0,0,1-1.93,5.76,53.41,53.41,0,0,1-6.11,10.49c-4.81,6.56-10.83,12.06-16.64,17.64s-11.63,11.25-16,18.05a53,53,0,0,0-2.95,5.25,46.55,46.55,0,0,0-2.24,5.59,38,38,0,0,0-1.35,5.88A33.7,33.7,0,0,0,648.41,364.38Z" transform="translate(0 32.76)"/><path class="cls-3" d="M688.74,292.48a52.74,52.74,0,0,1-1.28,5.39c-.51,1.78-1.12,3.52-1.79,5.25s-1.41,3.41-2.25,5.06A48.88,48.88,0,0,1,680.7,313l2.2-5.07c.71-1.7,1.42-3.39,2.08-5.1s1.3-3.42,1.93-5.15Z" transform="translate(0 32.76)"/><path class="cls-3" d="M705.69,295a34.58,34.58,0,0,1-4.67,9.67,35.28,35.28,0,0,1-16.83,13.13A34,34,0,0,1,673.66,320a40.57,40.57,0,0,0,10.32-2.7,38.57,38.57,0,0,0,9.18-5.32,38.08,38.08,0,0,0,7.39-7.61A41,41,0,0,0,705.69,295Z" transform="translate(0 32.76)"/><path class="cls-3" d="M689.53,324.43c-3,1.07-5.93,2.17-8.86,3.36s-5.82,2.43-8.66,3.8-5.67,2.76-8.45,4.25-5.52,3.07-8.24,4.68a91.19,91.19,0,0,1,8-5.18c2.73-1.6,5.55-3,8.41-4.43s5.8-2.57,8.78-3.65A92.26,92.26,0,0,1,689.53,324.43Z" transform="translate(0 32.76)"/><path class="cls-3" d="M557.88,165.6H533.43a1.9,1.9,0,0,0-1.9,1.9v17.07a1.9,1.9,0,0,0,1.9,1.9h9.33l2.9,5,2.9-5h9.32a1.9,1.9,0,0,0,1.9-1.9V167.5A1.9,1.9,0,0,0,557.88,165.6Z" transform="translate(0 32.76)"/><path class="cls-8" d="M545.65,172.91a3.6,3.6,0,0,1,6.82,1.38,5.79,5.79,0,0,1-1.35,4,15.78,15.78,0,0,1-5.06,4.31.85.85,0,0,1-.73,0,15.17,15.17,0,0,1-5.63-5.1,4.49,4.49,0,0,1-.15-5.09,3.54,3.54,0,0,1,5.87.09C545.48,172.6,545.53,172.71,545.65,172.91Z" transform="translate(0 32.76)"/><path class="cls-3" d="M219.65,181.82l-18-3.61a1.44,1.44,0,0,0-1.68,1.12l-2.52,12.59a1.44,1.44,0,0,0,1.12,1.68l6.88,1.37,1.4,4.13,2.88-3.27,6.88,1.38a1.42,1.42,0,0,0,1.67-1.12l2.52-12.59A1.42,1.42,0,0,0,219.65,181.82Z" transform="translate(0 32.76)"/><path class="cls-8" d="M209.55,185.41a2.71,2.71,0,0,1,4.83,2,4.37,4.37,0,0,1-1.58,2.72,11.84,11.84,0,0,1-4.37,2.43.63.63,0,0,1-.54-.07,11.47,11.47,0,0,1-3.4-4.6,3.38,3.38,0,0,1,.64-3.77,2.65,2.65,0,0,1,4.31.93C209.47,185.15,209.5,185.24,209.55,185.41Z" transform="translate(0 32.76)"/><path class="cls-3" d="M336.16,157a15.81,15.81,0,0,0-11.92,26.22c-.49,1.15-1.79,3.81-3.91,5.07,0,0,5.6-.2,8.26-1.55A15.83,15.83,0,1,0,336.16,157Z" transform="translate(0 32.76)"/><circle class="cls-5" cx="328.73" cy="205.54" r="1.56"/><circle class="cls-5" cx="336.16" cy="205.54" r="1.56"/><circle class="cls-5" cx="343.6" cy="205.54" r="1.56"/><path class="cls-3" d="M336.49,350a2.59,2.59,0,0,0-3.44.27L330,353.31H278.32l-3.06-3.07a2.61,2.61,0,0,0-3.45-.27,2.51,2.51,0,0,0-.19,3.71l4,4a2.11,2.11,0,0,0,1.48.61h54.06a2.09,2.09,0,0,0,1.48-.61l4-4A2.5,2.5,0,0,0,336.49,350Z" transform="translate(0 32.76)"/><circle class="cls-9" cx="285.34" cy="395.22" r="4.06"/><path class="cls-10" d="M286.67,362.46a1.33,1.33,0,1,1-1.33-1.34A1.33,1.33,0,0,1,286.67,362.46Z" transform="translate(0 32.76)"/><circle class="cls-9" cx="322.96" cy="395.22" r="4.06"/><path class="cls-10" d="M324.3,362.46a1.34,1.34,0,1,1-1.34-1.34A1.34,1.34,0,0,1,324.3,362.46Z" transform="translate(0 32.76)"/><path class="cls-11" d="M290.44,342.32l.66,5.06,2.24,2.81,6.43-2.16s.08-2,.19-5.32C296.77,342.61,293.58,342.42,290.44,342.32Z" transform="translate(0 32.76)"/><path class="cls-10" d="M311.06,353.25a1.8,1.8,0,0,0-.2-2.12,3.28,3.28,0,0,0-2-1,21.53,21.53,0,0,0-2.27-.22,11,11,0,0,1-5.87-2.59A2.94,2.94,0,0,0,301,345a2.26,2.26,0,0,0-1.61-1.1,4.41,4.41,0,0,0-3.64.87,4.75,4.75,0,0,0-1.75,3.49,1.45,1.45,0,0,1-1.21-.6,3.65,3.65,0,0,0-1-.94,2.09,2.09,0,0,0-1.59.06,1.32,1.32,0,0,0-.5.29.53.53,0,0,0-.14.54,7.46,7.46,0,0,1,.11,4.06,2.86,2.86,0,0,0,0,1.61Z" transform="translate(0 32.76)"/><path class="cls-11" d="M234.63,322.17l-3.77,2.45a.38.38,0,0,1-.11.06l-1.16,5.19,5.25,2.94.27.53,5.18-2.57A56,56,0,0,1,234.63,322.17Z" transform="translate(0 32.76)"/><path class="cls-10" d="M234.33,345.57a.93.93,0,0,0,1.28.41,2.14,2.14,0,0,0,.84-.92,3.37,3.37,0,0,0,.05-2.24c-.2-.74-.55-1.42-.82-2.14a11,11,0,0,1-.29-6.4,2.91,2.91,0,0,0,2.22-.77,2.22,2.22,0,0,0,.27-1.93,4.42,4.42,0,0,0-2.39-2.88,4.8,4.8,0,0,0-3.91,0,1.49,1.49,0,0,1,0-1.35A3.51,3.51,0,0,0,232,326a2.16,2.16,0,0,0-.76-1.4,1.39,1.39,0,0,0-.48-.32.55.55,0,0,0-.55.11,7.38,7.38,0,0,1-3.59,1.91l-.36.1a1.05,1.05,0,0,0-.65,1.48Z" transform="translate(0 32.76)"/><path class="cls-8" d="M300.68,305.06c-.16,20.34.35,38.33.35,38.33l-11.24,2.92-8-77.08-6.09-20.84,1.51-2.51.49-.82,19.41,4.68,1.39.33.29.07s1.5,13,1.91,17.09C300.9,269.16,300.82,286.88,300.68,305.06Z" transform="translate(0 32.76)"/><path class="cls-8" d="M277.7,245.06s-11.25,8.92-13.16,21.25S267.87,300,267.87,300l-35.5,23.33,8,8.75s39.92-18.08,44.25-24.5-2.25-50.92-2.25-50.92Z" transform="translate(0 32.76)"/><path class="cls-10" d="M285.66,304.69c.08-5.75.11-11.49-.06-17.23-.06-2.87-.18-5.73-.42-8.59a68.78,68.78,0,0,0-1.11-8.48l-.05-.25.21-.13,3.89-2.23L288,268l1.3-8.43c.45-2.8.91-5.6,1.4-8.4q-.46,4.23-1,8.46l-1.08,8.46,0,.15-.14.08-3.86,2.27.16-.37a59.18,59.18,0,0,1,1.17,8.58c.21,2.87.3,5.75.34,8.63s0,5.75-.11,8.63S285.89,301.82,285.66,304.69Z" transform="translate(0 32.76)"/><path class="cls-10" d="M283,250.31c1.26.42,2.51.8,3.77,1.13s2.54.61,3.82.81a33.4,33.4,0,0,0,3.87.41,15.86,15.86,0,0,0,1.95,0c.66,0,1.3-.1,2-.11a14.85,14.85,0,0,1-3.92.68,19,19,0,0,1-4-.25,22.22,22.22,0,0,1-3.87-1A19,19,0,0,1,283,250.31Z" transform="translate(0 32.76)"/><path class="cls-10" d="M284.41,270.31c.2-1.67.48-3.32.78-5s.63-3.28,1-4.92.72-3.27,1.14-4.89.84-3.24,1.35-4.84c-.2,1.66-.49,3.31-.78,5s-.64,3.29-1,4.93-.73,3.26-1.15,4.89S284.91,268.71,284.41,270.31Z" transform="translate(0 32.76)"/><path class="cls-11" d="M284.79,215.27c2-4.18,1.28-13.34,1.18-14.47a.45.45,0,0,1,0-.11L297,208.13a3.11,3.11,0,0,0-.45,1.25h0a14.09,14.09,0,0,0,0,3.57,31.21,31.21,0,0,0,.76,4l-5.92,2.58Z" transform="translate(0 32.76)"/><path class="cls-12" d="M296.53,213c-6.36.29-8.95-7.49-9-7.78a7.41,7.41,0,0,0,4.24,3.58,12.42,12.42,0,0,0,4.8.64h0A14.09,14.09,0,0,0,296.53,213Z" transform="translate(0 32.76)"/><path class="cls-13" d="M305.2,230.89a6.65,6.65,0,0,1-.21,1.8,18.81,18.81,0,0,1-2.7,5.7l-.13.41L299,248.49l-.51,1.58-.13.41a8.2,8.2,0,0,1-1.49.39c-2.86.52-9.74.81-19.67-5-.14-.07-.28-.16-.42-.24s.06-.49.12-1.34a37.16,37.16,0,0,0-1-11.26,25.09,25.09,0,0,0-1-3.15c-3-7.5,2.65-14.09,5.66-14.63s4.42-.87,4.42-.87,7.17,4.84,12.5,1.75a29.49,29.49,0,0,0,3.9,3.23,6.32,6.32,0,0,1,2.69,4A51.08,51.08,0,0,1,305.2,230.89Z" transform="translate(0 32.76)"/><path class="cls-9" d="M302.16,238.8,299,248.49a112.91,112.91,0,0,1-22.1-4.19,37.16,37.16,0,0,0-1-11.26C280.25,234.71,293,239.24,302.16,238.8Z" transform="translate(0 32.76)"/><path class="cls-10" d="M287.25,217.66a11.79,11.79,0,0,0,9.68.34,7.44,7.44,0,0,1-9.68-.34Z" transform="translate(0 32.76)"/><path class="cls-10" d="M288.36,244.06a57.27,57.27,0,0,0,10.58-10.29,21.7,21.7,0,0,1-4.44,6A21.92,21.92,0,0,1,288.36,244.06Z" transform="translate(0 32.76)"/><path class="cls-10" d="M294,242.73a14.55,14.55,0,0,1,1.6-2.14,14,14,0,0,1,1.9-1.86,6.09,6.09,0,0,1-1.34,2.36A6.17,6.17,0,0,1,294,242.73Z" transform="translate(0 32.76)"/><path class="cls-11" d="M244.83,247.86a69.53,69.53,0,0,0-7.05,13.23h0c-1.67.95-5.61,3.29-6.74,4.93a.18.18,0,0,0,.16.29,5.38,5.38,0,0,0,2.45-1.22s-2.35,2.77-2.3,3.43,3.55-2.45,3.55-2.45-2.32,3.4-2,3.94,3.37-2.95,3.37-2.95-2.19,3.65-1.86,3.78c.8.32,4-4.71,4.5-4.32s.18,1.8-.07,2.52a.25.25,0,0,0,.18.34,1,1,0,0,0,1.14-.72,14,14,0,0,0,1.24-5.35c.09-.09,2.43-2.33,6-5.68C246.33,254.45,245.52,251.18,244.83,247.86Z" transform="translate(0 32.76)"/><path class="cls-3" d="M285,214.39s-9.33-1.83-23.5,12-24.33,22.67-24.33,22.67,3.33,11.17,8,14c0,0,12.67-13.5,15.33-15.33s15.17-14.67,15.17-14.67S287,220.56,285,214.39Z" transform="translate(0 32.76)"/><path class="cls-3" d="M271.12,232.06s1.75,11.5.75,15.5-17,18-9.75,52.25a83.61,83.61,0,0,0,18,1.25s0-48.5,3.5-52.5,8.17-25.33,1.33-34.17C285,214.39,271.37,221.06,271.12,232.06Z" transform="translate(0 32.76)"/><path class="cls-10" d="M271.9,237.11a10.76,10.76,0,0,1,2.2-2,10.51,10.51,0,0,1,2.63-1.4,11.79,11.79,0,0,1-4.83,3.42Z" transform="translate(0 32.76)"/><path class="cls-10" d="M274,236.16a17,17,0,0,1,.82,8.05,29.75,29.75,0,0,1-2.27,7.84c-2.16,5-5.16,9.57-6.94,14.65a54.3,54.3,0,0,0-3.4,15.73,53.16,53.16,0,0,0,0,8.08,51.69,51.69,0,0,0,1.17,8,52.55,52.55,0,0,1-1.54-8,54.11,54.11,0,0,1-.25-8.15,53.51,53.51,0,0,1,3.27-16c1.89-5.15,4.89-9.73,7.13-14.62a30.11,30.11,0,0,0,2.43-7.66A16.94,16.94,0,0,0,274,236.16Z" transform="translate(0 32.76)"/><path class="cls-11" d="M345.73,265.19c.35-.44,1.8-.19,2.52.06a.25.25,0,0,0,.33-.19c.07-.31,0-.81-.71-1.13a14.09,14.09,0,0,0-5.32-1.23c-1.25-1.31-3.55-3.7-6.41-6.7q-1.87,3.51-3.67,7.07a67.17,67.17,0,0,0,8.34,4.1c1.13,1.9,3,4.89,4.43,5.85a.18.18,0,0,0,.29-.16,5.35,5.35,0,0,0-1.22-2.46s2.78,2.35,3.43,2.3-2.45-3.55-2.45-3.55,3.4,2.31,3.94,2-3-3.36-3-3.36,3.65,2.18,3.78,1.86C350.38,268.87,345.34,265.68,345.73,265.19Z" transform="translate(0 32.76)"/><path class="cls-3" d="M307.12,222.69a9.44,9.44,0,0,0-3-2.5,4.37,4.37,0,0,1,.17.67,69,69,0,0,1,.62,19.64c8.32,11.81,29.43,25.81,29.43,25.81,2.75-2,6.25-6.87,6.25-6.87C336.5,255.56,309.37,225.44,307.12,222.69Z" transform="translate(0 32.76)"/><path class="cls-3" d="M315.65,301.86l-5-20.79c-2.55-19.91-3.51-45-3.51-45l-.83-1.32v-3.51s8.66-7-8.84-15.09a25.18,25.18,0,0,1,5.17,16.92,61.05,61.05,0,0,1-.66,6.36l-3.46,10.65s.47,6.91.62,8.16c.67,5.66,1.5,47,1.5,47a99.05,99.05,0,0,0,13.4-.88A2,2,0,0,0,315.65,301.86Z" transform="translate(0 32.76)"/><path class="cls-10" d="M306.93,243.68l-.41-6.69c-.14-2.22-.36-4.42-.5-6.68a26.85,26.85,0,0,1,1.24,6.63A27.17,27.17,0,0,1,306.93,243.68Z" transform="translate(0 32.76)"/><path class="cls-11" d="M302.67,189.22c-1.2-4-8.21-6.1-13.53-2.17-2.48,1.82-3.25,5.42-3.38,8.76l-.29-.15a2.08,2.08,0,0,0-2.45,1.28,2.75,2.75,0,0,0,.17,2.31,3.44,3.44,0,0,0,1.47,1.43,4,4,0,0,0,1.33.24,10.08,10.08,0,0,0,2.87,5.91,9.11,9.11,0,0,0,7.56,2.57c2.19-.27,5.49-1.4,6.46-3.57a5.85,5.85,0,0,0,.38-1.81c0-.14,0-.29,0-.43.12-1.38.23-2.82.29-4.29A31.14,31.14,0,0,0,302.67,189.22Z" transform="translate(0 32.76)"/><path class="cls-12" d="M303.59,199.3c-.06,1.47-.17,2.91-.29,4.29a1.87,1.87,0,0,1-.58,0,2.22,2.22,0,0,1,.36-4.42A2.1,2.1,0,0,1,303.59,199.3Z" transform="translate(0 32.76)"/><path class="cls-12" d="M289.69,200.35a2.22,2.22,0,1,0,2.38-2A2.22,2.22,0,0,0,289.69,200.35Z" transform="translate(0 32.76)"/><path class="cls-10" d="M299.87,196.85c-.06.72.18,1.33.53,1.36s.69-.53.74-1.26-.18-1.32-.53-1.35S299.93,196.13,299.87,196.85Z" transform="translate(0 32.76)"/><path class="cls-10" d="M302,195.29a2,2,0,0,1-.48.52,1.47,1.47,0,0,1-.7.29h0a.24.24,0,0,1-.27-.2.23.23,0,0,1,.2-.26h.07a1.35,1.35,0,0,0,1.06-.43h0a.08.08,0,0,1,.11,0A.12.12,0,0,1,302,195.29Z" transform="translate(0 32.76)"/><path class="cls-10" d="M295.62,196.51c-.06.72-.4,1.29-.75,1.26s-.59-.64-.53-1.36.39-1.28.74-1.26S295.67,195.79,295.62,196.51Z" transform="translate(0 32.76)"/><path class="cls-10" d="M294,194.57a1.41,1.41,0,0,0,1,.6.24.24,0,1,1,0,.47h-.07a1.62,1.62,0,0,1-.64-.4,1.89,1.89,0,0,1-.39-.59s0-.09,0-.1a.06.06,0,0,1,.09,0Z" transform="translate(0 32.76)"/><path class="cls-10" d="M299.82,200.83a3.11,3.11,0,0,1-1.05,1,2.38,2.38,0,0,1-2.85-.25,5.09,5.09,0,0,1-.51-.53,7,7,0,0,1-.38-.63c.18.16.35.33.52.5s.36.3.55.42a2.47,2.47,0,0,0,2.53.22A5.53,5.53,0,0,0,299.82,200.83Z" transform="translate(0 32.76)"/><path class="cls-10" d="M297.91,203a1.11,1.11,0,0,1-1.34-.11,3.21,3.21,0,0,0,.66.13A3.11,3.11,0,0,0,297.91,203Z" transform="translate(0 32.76)"/><path class="cls-10" d="M296.51,192a1.5,1.5,0,0,0-1-.44,3,3,0,0,0-1.07.06,2.71,2.71,0,0,0-1,.46,2.62,2.62,0,0,0-.69.76.29.29,0,0,0,.08.42.3.3,0,0,0,.36,0l0,0a3.15,3.15,0,0,1,.67-.45,2,2,0,0,1,.72-.23,2.41,2.41,0,0,1,.76,0,2.73,2.73,0,0,0,.81,0h.08a.32.32,0,0,0,.26-.37A.38.38,0,0,0,296.51,192Z" transform="translate(0 32.76)"/><path class="cls-10" d="M299.7,192.28a1.54,1.54,0,0,1,1-.29,3.14,3.14,0,0,1,1,.23,2.62,2.62,0,0,1,.88.61,2.8,2.8,0,0,1,.57.86.31.31,0,0,1-.15.41.32.32,0,0,1-.35-.07l0,0a3.83,3.83,0,0,0-.6-.55,2.12,2.12,0,0,0-.67-.34,2.36,2.36,0,0,0-.75-.13,2.93,2.93,0,0,1-.8-.12l-.08,0a.32.32,0,0,1-.2-.41A.33.33,0,0,1,299.7,192.28Z" transform="translate(0 32.76)"/><path class="cls-10" d="M298.05,194.7c.07.5.12,1,.17,1.49a13.68,13.68,0,0,0,.21,1.45c0,.11.05.23.08.34a1.24,1.24,0,0,1,.07.43.85.85,0,0,1-.52.74,1,1,0,0,1-.83,0,2.06,2.06,0,0,1-.63-.45c.44.21,1,.39,1.31.17a.51.51,0,0,0,.26-.45.88.88,0,0,0-.07-.3c0-.12-.07-.25-.1-.38a7.09,7.09,0,0,1-.12-1.52A7.58,7.58,0,0,1,298.05,194.7Z" transform="translate(0 32.76)"/><path class="cls-10" d="M283.77,197.71a1.07,1.07,0,0,1,.4-.84,1,1,0,0,1,1,0,1.89,1.89,0,0,1,.75.65,3.36,3.36,0,0,1,.43.87.23.23,0,0,1-.15.28.21.21,0,0,1-.23-.07v0a2,2,0,0,0-.69-.57.31.31,0,0,0-.31,0,.7.7,0,0,0-.25.32c-.13.28-.23.61,0,.76a1.66,1.66,0,0,0,1,.14,1.59,1.59,0,0,1-1.08.06.59.59,0,0,1-.33-.53,1.4,1.4,0,0,1,.11-.58,1.09,1.09,0,0,1,.35-.5.73.73,0,0,1,.68-.09,2.15,2.15,0,0,1,.9.72l-.39.19a2.36,2.36,0,0,0-.9-1.34.83.83,0,0,0-.74-.1A1.05,1.05,0,0,0,283.77,197.71Z" transform="translate(0 32.76)"/><path class="cls-10" d="M310.86,210.63a8.38,8.38,0,0,0-1.72-4c-.86-1.2-1.86-2.3-2.63-3.56s-.79-2.77-1.25-4.17a17.84,17.84,0,0,1-.37-5.93,9.84,9.84,0,0,0-1.93-5.75,7,7,0,0,0-3.29-2.68,16.34,16.34,0,0,0-8.22-1.37c-2.79.37-6.19,1.66-6.74,4.42-.4,2,.11,4.2-1.17,5.79-1.15,1.44-4.05,2.4-4.75,4.1a27.45,27.45,0,0,0-.87,4.44,9.37,9.37,0,0,1-2.2,4.29,5.93,5.93,0,0,0-1.72,2.46,2.94,2.94,0,0,0,1.15,2.75,7.49,7.49,0,0,0,2.84,1.29,39.18,39.18,0,0,0,7.3,1.29c1.36-4.39.81-11.65.69-13.05a4.19,4.19,0,0,1-1.32-.24,3.5,3.5,0,0,1-1.47-1.43,2.75,2.75,0,0,1-.17-2.31,2.3,2.3,0,0,1,1.26-1.23,7.75,7.75,0,0,0,4.34,4.77,5.71,5.71,0,0,1-1.5-2.73,13,13,0,0,0,13-9.24,9.33,9.33,0,0,0-4.69-.55,17.89,17.89,0,0,0-6.48,1.67,12.12,12.12,0,0,0-2.48,1.64,7.82,7.82,0,0,1,2.69-4.22c5.32-3.93,12.33-1.84,13.53,2.17a31.14,31.14,0,0,1,.92,10.08c-.06,1.47-.17,2.91-.29,4.29,0,.14,0,.29,0,.43a5.85,5.85,0,0,1-.38,1.81c-.95,2.12-4.12,3.25-6.31,3.55a14,14,0,0,0,0,3.56c.05.46.12,1,.2,1.44,3.07.18,6.13.4,9.16.5a6.21,6.21,0,0,0,3.18-.47A3.94,3.94,0,0,0,310.86,210.63Z" transform="translate(0 32.76)"/><path class="cls-13" d="M304.06,189.36a10,10,0,0,0-5.86-8.73,14.28,14.28,0,0,0-11.53,0,15.36,15.36,0,0,0-8,8,3.85,3.85,0,0,0-.38,1.57,1.56,1.56,0,0,0,.77,1.36c1.11.58,2.84.72,3.72,1.56,1.16,1.1,3.27.11,5-.09C293.24,192.32,299.17,191.85,304.06,189.36Z" transform="translate(0 32.76)"/><path class="cls-13" d="M305.14,189a.84.84,0,0,1-.56.81,61.47,61.47,0,0,1-20.06,4.66,4.36,4.36,0,0,1-1.91-.17l-.21-.1a1,1,0,0,1,.14-1.82,8.86,8.86,0,0,1,2.94-.81A73.43,73.43,0,0,0,301,187.73a5.52,5.52,0,0,1,2.6-.5A1.93,1.93,0,0,1,305.14,189Z" transform="translate(0 32.76)"/><path class="cls-10" d="M282.23,192.48c1.69-.56,3.4-1,5.11-1.5s3.43-.88,5.15-1.3,3.45-.79,5.19-1.13,3.48-.69,5.24-.94c-1.69.56-3.4,1-5.11,1.5s-3.43.88-5.15,1.3-3.45.79-5.19,1.13S284,192.23,282.23,192.48Z" transform="translate(0 32.76)"/><path class="cls-10" d="M281.72,187.71a13.7,13.7,0,0,0,0,2.55,15.13,15.13,0,0,0,.48,2.51,3.71,3.71,0,0,1-.44-5.06Z" transform="translate(0 32.76)"/><g class="cls-14"><path class="cls-7" d="M229.41,368q13.69-.58,27.38-.78c9.12-.16,18.25-.2,27.37-.22s18.25.06,27.38.22,18.25.39,27.37.78q-13.68.58-27.37.78c-9.13.16-18.25.2-27.38.22s-18.25-.06-27.37-.22S238.54,368.39,229.41,368Z" transform="translate(0 32.76)"/></g><g class="cls-15"><path class="cls-16" d="M165.86,354.32l2,8.44,8-2.52s-.12-1.95-.33-5.24Q170.72,354.75,165.86,354.32Z" transform="translate(0 32.76)"/><path class="cls-17" d="M169,367.33a72.35,72.35,0,0,0,20.6-2.56,4.16,4.16,0,0,0-3.17-3.49,16.16,16.16,0,0,0-4.71,0c-1.58.09-3.32,0-4.54-1a1.09,1.09,0,0,0-.54-1.38,2.34,2.34,0,0,0-1.59,0,7.14,7.14,0,0,0-2.5,1.2,5.16,5.16,0,0,1-1.78,1.11,2.5,2.5,0,0,1-1.89-.39c-.29-.18-.68-.37-1-.58a1.21,1.21,0,0,0-1.69.5,4.08,4.08,0,0,0-.19.42,9.57,9.57,0,0,1,1.15,4.35A2,2,0,0,0,169,367.33Z" transform="translate(0 32.76)"/><path class="cls-16" d="M95.86,321.46c-5.32,2.78-8.79,4.61-8.79,4.61l2.79,8.79,11.37-4.28A99,99,0,0,0,95.86,321.46Z" transform="translate(0 32.76)"/><path class="cls-17" d="M82.44,328.22a72.4,72.4,0,0,0,5.67,20,4.16,4.16,0,0,0,3-3.67,15.86,15.86,0,0,0-.7-4.66c-.32-1.55-.53-3.28.3-4.64a1.08,1.08,0,0,0,1.28-.75,2.34,2.34,0,0,0-.2-1.57,7.14,7.14,0,0,0-1.57-2.29A5.41,5.41,0,0,1,88.81,329a2.56,2.56,0,0,1,.1-1.94c.14-.31.27-.72.42-1.12a1.2,1.2,0,0,0-.75-1.58l-.44-.13a9.66,9.66,0,0,1-4.13,1.8A2,2,0,0,0,82.44,328.22Z" transform="translate(0 32.76)"/><path class="cls-10" d="M133.16,263.73s-3.25,10.88-3.5,18.38S126,304.36,126,304.36l-36.25,20,2.88,10.37s42.25-15.25,46.37-18.37,12.13-33.63,12.13-33.63l15.25,76.13,9.75-1.13s-3.38-78.5-10.88-90.12Z" transform="translate(0 32.76)"/><path class="cls-3" d="M132.07,268.73c2.84.77,5.69,1.43,8.57,2s5.76,1.06,8.67,1.38a79.85,79.85,0,0,0,8.75.59,62.9,62.9,0,0,0,8.76-.6,42.25,42.25,0,0,1-8.76,1.17,66.92,66.92,0,0,1-8.84-.41,84.73,84.73,0,0,1-8.7-1.57A66.44,66.44,0,0,1,132.07,268.73Z" transform="translate(0 32.76)"/><path class="cls-3" d="M154.44,269.36c0,1.69,0,3.38,0,5.07s-.06,3.38-.14,5.07v.11l-.07.08L151.61,283l-.71.89,0-1.14c.09-2.25.14-4.5.27-6.75s.26-4.49.47-6.74c.09,2.26.1,4.51.1,6.76s-.07,4.5-.1,6.75l-.66-.24,2.65-3.23-.08.2c.09-1.69.22-3.38.36-5.06S154.25,271,154.44,269.36Z" transform="translate(0 32.76)"/><path class="cls-3" d="M163.44,272.73a14.31,14.31,0,0,0,.39,2.4,7.85,7.85,0,0,0,.88,2.15,5,5,0,0,0,1.57,1.65,8.84,8.84,0,0,0,2.16,1.05,5.09,5.09,0,0,1-2.46-.55,4.61,4.61,0,0,1-1.91-1.75A6.44,6.44,0,0,1,163.44,272.73Z" transform="translate(0 32.76)"/><path class="cls-3" d="M135.57,269.73a7.56,7.56,0,0,1-.6,5.19,5.18,5.18,0,0,1-1.86,2,5.06,5.06,0,0,1-2.54.72,8,8,0,0,0,2.2-1.2,5.73,5.73,0,0,0,1.54-1.85,10.44,10.44,0,0,0,.85-2.31A20.07,20.07,0,0,0,135.57,269.73Z" transform="translate(0 32.76)"/><path class="cls-3" d="M147.82,281a9.47,9.47,0,0,1,4.25,2.08l-.22-.09a26.29,26.29,0,0,1,4.72.39,27,27,0,0,1-4.76.36h-.13l-.09-.08A31.33,31.33,0,0,0,147.82,281Z" transform="translate(0 32.76)"/><path class="cls-3" d="M126.94,306.36a5.76,5.76,0,0,1-1.08-1.61l-.27-.56.66.06c.39,0,.79.09,1.21.15a3.82,3.82,0,0,1,1.24.43,8.35,8.35,0,0,1-1.27.2,5.1,5.1,0,0,1-1.29-.06l.39-.51A6,6,0,0,1,126.94,306.36Z" transform="translate(0 32.76)"/><path class="cls-16" d="M146.33,220.41c2.55-3.91,2.9-13.09,2.94-14.22v-.12l10.07,8.74a3,3,0,0,0-.6,1.19h0a14.28,14.28,0,0,0-.47,3.53c-.05,1.79.08,3.35.08,3.35Z" transform="translate(0 32.76)"/><path class="cls-18" d="M158.27,219.53c-6.35-.48-8-8.52-8-8.82a7.45,7.45,0,0,0,3.77,4.08A12.44,12.44,0,0,0,158.7,216h0A14.28,14.28,0,0,0,158.27,219.53Z" transform="translate(0 32.76)"/><path class="cls-19" d="M176.09,256.17c-1.61.86-3.26,1.68-5,2.44-1.34-2.51-2.54-5-3.6-7.3-2.68-5.85-4.53-10.92-5.71-14.17-1.06-2.92-4.12-7.59-3.8-9.32.84-4.39,4.08-7.92,9.67-2.09a36.45,36.45,0,0,1,4.17,7.06c1,2.52,2.71,6.38,4.77,10.85.66,1.45,1.37,3,2.1,4.53A6.13,6.13,0,0,1,176.09,256.17Z" transform="translate(0 32.76)"/><path class="cls-3" d="M146.81,218.11a28.08,28.08,0,0,0-9.82,1.11,14.9,14.9,0,0,0-5.67,2.86,7.88,7.88,0,0,0-2.87,5.52,5.37,5.37,0,0,0,3.08,5.15c2.1,3.11,2.16,7.25,1.74,11s-1.49,7.34-2,11.05-.3,7.69,1.63,10.91A130.54,130.54,0,0,0,149.41,269a43.46,43.46,0,0,0,16.7-.92c.68-12.16,1.21-24.39,1.9-36.56.11-1.94.18-4-.84-5.69s-3.08-2.61-5-3.38a15.89,15.89,0,0,0-5.27-1.46c-1.17,0-2.34.18-3.5.06A13.71,13.71,0,0,1,146.81,218.11Z" transform="translate(0 32.76)"/><path class="cls-19" d="M174.41,241.07c2.63,2.55,5.41,5.37,5.92,9a9.5,9.5,0,0,1-.28,3.82,4.62,4.62,0,0,1-2.08,2.72c-1,.59-1.86,1.33-2.75,2-4,3-9.22,3.59-14.19,4.08a14.85,14.85,0,0,1-1-3.7,5.17,5.17,0,0,1,.87-3.7,9.8,9.8,0,0,1,3.17-2.22,18.05,18.05,0,0,0,7.25-7.64C172.14,243.84,172.75,241.7,174.41,241.07Z" transform="translate(0 32.76)"/><path class="cls-10" d="M167.28,250.4a10.78,10.78,0,0,1,2.92-3.35,10.64,10.64,0,0,1,4-2c-1.2.89-2.38,1.69-3.51,2.59S168.44,249.46,167.28,250.4Z" transform="translate(0 32.76)"/><path class="cls-10" d="M171.74,243.89a3.37,3.37,0,0,1,.13,1.65,3.32,3.32,0,0,1-.62,1.52,3.2,3.2,0,0,1-.12-1.64A3.34,3.34,0,0,1,171.74,243.89Z" transform="translate(0 32.76)"/><path class="cls-19" d="M162.92,253.49a1.71,1.71,0,0,1,1,1.63l-.22,7.56a6.05,6.05,0,0,1-.9,3.7,3.34,3.34,0,0,1-2.33,1.15,9.49,9.49,0,0,1-2.6-.21,39.85,39.85,0,0,0-6.7-.76,20,20,0,0,1-5.19-.24,4.79,4.79,0,0,1-3.63-3.64,7.37,7.37,0,0,1,.28-2.83l1.16-5.13a1.59,1.59,0,0,1,1.31-1.26c3.23-.36,6.76,1.23,10,.85,1.51-.17,2.95-.8,4.44-1.09A5.88,5.88,0,0,1,162.92,253.49Z" transform="translate(0 32.76)"/><path class="cls-10" d="M163.62,262.38c0-1.47.08-2.87,0-4.27s-.26-2.8-.45-4.26a9.88,9.88,0,0,1,.46,8.53Z" transform="translate(0 32.76)"/><path class="cls-10" d="M151.87,261a13.19,13.19,0,0,1,1.67-1.25,12.83,12.83,0,0,1,1.81-1,3.51,3.51,0,0,1-1.4,1.66A3.56,3.56,0,0,1,151.87,261Z" transform="translate(0 32.76)"/><path class="cls-10" d="M154.2,261.58a8,8,0,0,1,1.12-1.69,8.11,8.11,0,0,1,1.45-1.41,3.79,3.79,0,0,1-.87,1.89A3.88,3.88,0,0,1,154.2,261.58Z" transform="translate(0 32.76)"/><rect class="cls-10" x="177.01" y="218.51" width="2.15" height="14.69" rx="0.83" transform="translate(136.81 -26.03) rotate(30.01)"/><path class="cls-16" d="M181.22,228.92l0-.1a1.82,1.82,0,0,0-.15-1.5c.38-.88-.62-1.42-.62-1.42.6-1.21-.11-1.75-.11-1.75-2,1.83-2.6,2-2.75,2h0c-.37-.43.14-1.82.53-2.49a.26.26,0,0,0,0-.21h0a.25.25,0,0,0-.14-.16,1,1,0,0,0-1.25.49,14,14,0,0,0-2.22,5.15h0c-.89.59-11.18,7.33-22.11,14.32-3.3-5.74-6.14-10.82-7.66-13.88a21.61,21.61,0,0,0-2.66-4.22,4.69,4.69,0,0,0-8.42,2.59,13.05,13.05,0,0,0,1.45,6.81c1.55,3.37,4.05,8.77,7.57,14.86.93,1.6,1.93,3.26,3,4.94a5.62,5.62,0,0,0,7.94,1.58c1.42-1,2.87-2,4.31-3.14,7.26-5.57,14.52-12.55,19.75-21l1.25-.51,1.48-.54A1.44,1.44,0,0,0,181.22,228.92Z" transform="translate(0 32.76)"/><path class="cls-20" d="M169.45,231.52s4-2.83,4.46-2.79,3.66,3.42,3.87,3.67-2.92,4.83-2.92,4.83S169.66,233.32,169.45,231.52Z" transform="translate(0 32.76)"/><path class="cls-3" d="M169.2,231.24a88.94,88.94,0,0,0-16.07,10,41.85,41.85,0,0,0-6.89-14c-1.75-2.32-3.9-4.58-7.15-4.54a6.49,6.49,0,0,0-4.65,2.06A6.21,6.21,0,0,0,133,231a8.36,8.36,0,0,1,.36,3,9.91,9.91,0,0,0,1.48,5c1.18,2,2.78,3.81,4,5.83,1.34,2.21,2.18,4.68,3.39,6.95s2.91,4.46,5.29,5.44a9.48,9.48,0,0,0,7.43-.44,21.41,21.41,0,0,0,6.06-4.61c1.51-1.53,1.94-3.71,3.66-5s3.63-2.31,5.31-3.65a19.08,19.08,0,0,0,4.51-5.25c.15-.27.31-.54.45-.82a.69.69,0,0,0-.09-.74c-1.58-1.85-3.18-3.67-4.9-5.39A.68.68,0,0,0,169.2,231.24Z" transform="translate(0 32.76)"/><path class="cls-10" d="M134.21,237.71a7.7,7.7,0,0,0,1.82,3.2c.82.93,1.74,1.76,2.61,2.67a21.94,21.94,0,0,1,3.81,6.47c1,2.24,2.11,4.53,4,6.08a7.59,7.59,0,0,0,6.71,1.51,8.1,8.1,0,0,0,3.18-1.6,18.61,18.61,0,0,0,2.65-2.53c1.64-1.83,3.08-3.91,4.93-5.64s3.94-3.11,5.87-4.67a16.16,16.16,0,0,0,4.78-5.61,15.59,15.59,0,0,1-4.55,5.89c-1.89,1.64-4,3.07-5.7,4.8s-3.17,3.78-4.82,5.69a19.5,19.5,0,0,1-2.73,2.64,8.69,8.69,0,0,1-3.43,1.76,8.33,8.33,0,0,1-7.33-1.72,16.34,16.34,0,0,1-4.06-6.37,21.26,21.26,0,0,0-3.56-6.45c-.8-.94-1.69-1.82-2.48-2.8A7.37,7.37,0,0,1,134.21,237.71Z" transform="translate(0 32.76)"/><path class="cls-10" d="M153.08,241.2a4.71,4.71,0,0,1-1.38,1.49,4.9,4.9,0,0,1-1.83.9,5,5,0,0,1,1.39-1.5A4.91,4.91,0,0,1,153.08,241.2Z" transform="translate(0 32.76)"/><path class="cls-10" d="M154.85,244c-.82-1-1.47-2-2.26-2.84l.62-.13a23.25,23.25,0,0,0-.85,3,5.39,5.39,0,0,1,.15-3.2l.19-.57.43.43a6.74,6.74,0,0,1,1.1,1.57A7,7,0,0,1,154.85,244Z" transform="translate(0 32.76)"/><path class="cls-10" d="M146.11,227.2a18.94,18.94,0,0,1,2.57,2.94,21.31,21.31,0,0,1,2,3.38,22.07,22.07,0,0,1,1.36,3.69,18,18,0,0,1,.64,3.86c-.37-1.25-.75-2.48-1.19-3.69s-.93-2.38-1.49-3.53-1.15-2.28-1.8-3.4S146.84,228.28,146.11,227.2Z" transform="translate(0 32.76)"/><path class="cls-10" d="M171,232.07a4.14,4.14,0,0,1,2.67-2.16,3.67,3.67,0,0,1-1.1,1.37A3.76,3.76,0,0,1,171,232.07Z" transform="translate(0 32.76)"/><path class="cls-10" d="M172.18,233.3a4.48,4.48,0,0,1,1-1.66,4.55,4.55,0,0,1,1.58-1.15,4.55,4.55,0,0,1-1,1.66A4.6,4.6,0,0,1,172.18,233.3Z" transform="translate(0 32.76)"/><path class="cls-10" d="M173.3,234.83a6.71,6.71,0,0,1,1.09-2.15,6.9,6.9,0,0,1,1.7-1.71,6.92,6.92,0,0,1-1.09,2.15A7.08,7.08,0,0,1,173.3,234.83Z" transform="translate(0 32.76)"/><path class="cls-10" d="M133.27,232.15a12.22,12.22,0,0,1,1.41-4.91,12.74,12.74,0,0,1,3.27-4,12.9,12.9,0,0,1,4.59-2.38,12,12,0,0,1,5.09-.36,16,16,0,0,0-4.92.91,14.5,14.5,0,0,0-7.53,6.12A16.05,16.05,0,0,0,133.27,232.15Z" transform="translate(0 32.76)"/><path class="cls-10" d="M150.05,221.73a6.82,6.82,0,0,0,.48,3.58,17.83,17.83,0,0,0,1.74,3.21,22.56,22.56,0,0,1,1.77,3.29,6.81,6.81,0,0,1,.45,3.7h-.08a7.54,7.54,0,0,0-.75-3.53,24.62,24.62,0,0,0-1.81-3.19,15.64,15.64,0,0,1-1.67-3.35A5.93,5.93,0,0,1,150.05,221.73Z" transform="translate(0 32.76)"/><path class="cls-10" d="M153.86,235.36a.6.6,0,1,0,1.18.22.6.6,0,1,0-1.18-.22Z" transform="translate(0 32.76)"/><path class="cls-10" d="M157,222.16a4.47,4.47,0,0,0,1.81,2.25,28.23,28.23,0,0,0,2.61,1.43,6.64,6.64,0,0,1,2.37,1.95,4.76,4.76,0,0,1,.81,2.93h-.1a5.13,5.13,0,0,0-1.05-2.68,7.1,7.1,0,0,0-2.27-1.77,16.11,16.11,0,0,1-2.59-1.57A3.93,3.93,0,0,1,157,222.16Z" transform="translate(0 32.76)"/><path class="cls-10" d="M163.92,230.69a.59.59,0,0,0,.61.6.6.6,0,0,0,.6-.6.62.62,0,0,0-.61-.6A.6.6,0,0,0,163.92,230.69Z" transform="translate(0 32.76)"/><path class="cls-16" d="M167.26,196.73c-.71-4.13-7.41-7-13.17-3.8-2.68,1.51-3.89,5-4.42,8.28a1.78,1.78,0,0,0-.27-.18,2.08,2.08,0,0,0-2.59,1,2.74,2.74,0,0,0-.11,2.31,3.41,3.41,0,0,0,1.28,1.6,4.4,4.4,0,0,0,1.3.41,10,10,0,0,0,2.12,6.2,9.08,9.08,0,0,0,7.19,3.48c2.21,0,5.62-.72,6.84-2.75a5.67,5.67,0,0,0,.6-1.75C167,206.88,168.06,201.45,167.26,196.73Z" transform="translate(0 32.76)"/><path class="cls-21" d="M160.53,204.26a3,3,0,0,0-.36-.85,1.77,1.77,0,0,0-.6-.56,3.38,3.38,0,0,0-.81-.29l-.95-.16c.15-.07.31-.11.48-.17l.5,0a2,2,0,0,1,1,.24,1.57,1.57,0,0,1,.71,1.84Z" transform="translate(0 32.76)"/><path class="cls-21" d="M167.14,204.53a2.2,2.2,0,0,0-1.6-.79,2.57,2.57,0,0,0-.84.27c-.28.15-.55.34-.86.51.08-.15.18-.29.28-.45s.24-.25.36-.38a1.94,1.94,0,0,1,1-.45,1.5,1.5,0,0,1,1.08.39A1.81,1.81,0,0,1,167.14,204.53Z" transform="translate(0 32.76)"/><path class="cls-10" d="M163.33,208a3.18,3.18,0,0,1-1.17.88,2.35,2.35,0,0,1-2.8-.59,3.62,3.62,0,0,1-.44-.59c-.11-.22-.22-.44-.31-.66.17.18.32.37.46.55s.32.34.5.48a2.59,2.59,0,0,0,1.17.61,2.55,2.55,0,0,0,1.31-.08A5.51,5.51,0,0,0,163.33,208Z" transform="translate(0 32.76)"/><path class="cls-10" d="M161.16,209.9a1.05,1.05,0,0,1-.7.09,1.12,1.12,0,0,1-.62-.36,3.5,3.5,0,0,0,.65.21A2.93,2.93,0,0,0,161.16,209.9Z" transform="translate(0 32.76)"/><path class="cls-10" d="M161.11,198.83a1.53,1.53,0,0,0-.9-.56,3.13,3.13,0,0,0-1.06-.07,2.62,2.62,0,0,0-1,.34,2.56,2.56,0,0,0-.79.67.3.3,0,0,0,0,.43.3.3,0,0,0,.36,0l0,0a3.73,3.73,0,0,1,.72-.36,2.11,2.11,0,0,1,.74-.14,2.4,2.4,0,0,1,.75.08,2.62,2.62,0,0,0,.8.11h.09a.32.32,0,0,0,.31-.33A.36.36,0,0,0,161.11,198.83Z" transform="translate(0 32.76)"/><path class="cls-10" d="M164.25,199.47a1.53,1.53,0,0,1,1-.16,3.05,3.05,0,0,1,1,.36,2.48,2.48,0,0,1,.8.71,2.74,2.74,0,0,1,.46.92.31.31,0,0,1-.2.39.31.31,0,0,1-.34-.11l0,0a3.17,3.17,0,0,0-.52-.62,2.12,2.12,0,0,0-.62-.42,2.59,2.59,0,0,0-.73-.23,2.89,2.89,0,0,1-.78-.2l-.08,0a.32.32,0,0,1-.15-.43A.29.29,0,0,1,164.25,199.47Z" transform="translate(0 32.76)"/><path class="cls-10" d="M163.46,201.78c0,.51,0,1,0,1.5a11.78,11.78,0,0,0,0,1.46c0,.12,0,.24,0,.36a1.15,1.15,0,0,1,0,.43.84.84,0,0,1-.61.67,1,1,0,0,1-.83-.12,2.36,2.36,0,0,1-.57-.52c.42.26.92.5,1.29.33a.51.51,0,0,0,.31-.42.88.88,0,0,0,0-.3,2.63,2.63,0,0,1-.06-.39,7.78,7.78,0,0,1,.07-1.53A7.49,7.49,0,0,1,163.46,201.78Z" transform="translate(0 32.76)"/><path class="cls-10" d="M147.43,202.72a1.09,1.09,0,0,1,.51-.78,1,1,0,0,1,1,.11,1.79,1.79,0,0,1,.66.73,2.87,2.87,0,0,1,.32.92.22.22,0,0,1-.18.25.21.21,0,0,1-.22-.09v0a1.88,1.88,0,0,0-.62-.66.33.33,0,0,0-.3,0,.89.89,0,0,0-.29.29c-.17.26-.3.58-.09.76a1.76,1.76,0,0,0,.94.26,1.54,1.54,0,0,1-1.07-.08.59.59,0,0,1-.27-.57,1.49,1.49,0,0,1,.18-.55,1.05,1.05,0,0,1,.41-.46.69.69,0,0,1,.68,0,2,2,0,0,1,.81.82l-.41.14a2.33,2.33,0,0,0-.73-1.44.82.82,0,0,0-.72-.19A1.1,1.1,0,0,0,147.43,202.72Z" transform="translate(0 32.76)"/><path class="cls-17" d="M169.08,202.66c-.35-2.7.83-5.49.14-8.13a6,6,0,0,0-2.82-3.63,5.65,5.65,0,0,0-4.47-.37,6.45,6.45,0,0,0-7.49-1.13c-2.05,1.12-3.29,3.26-5,4.88a16.79,16.79,0,0,0-2.78,2.81,3.89,3.89,0,0,0-.53,1.38s0,0,0,0c0,.18,0,.35,0,.53a.17.17,0,0,0,0,.07,12.39,12.39,0,0,0,3,9.57c.08-1.11.12-2,.14-2.34a4.37,4.37,0,0,1-1.29-.4,3.41,3.41,0,0,1-1.28-1.6,2.77,2.77,0,0,1,.11-2.32h0a1.66,1.66,0,0,1,2.3-.51,6.74,6.74,0,0,1,1.52,1.34c1,1.17,1.82,2.55,3.14,3.31.64.37,1.62.49,2-.15a1.66,1.66,0,0,0,.15-.91l-.09-4.5c0-1.64,0-3.49,1.18-4.65a3.54,3.54,0,0,1,3.23-.82,4.78,4.78,0,0,1,2.76,2s1.59-1.33,3.09-.51c1.3.7,1.79,3.89.91,10-.16,1-.34,2-.54,2.92l0,.09a1.6,1.6,0,0,0,2.15.71,2.67,2.67,0,0,0,1.35-2C170.3,206.35,169.32,204.53,169.08,202.66Z" transform="translate(0 32.76)"/></g><g class="cls-14"><path class="cls-7" d="M142.08,368c5.21-.41,10.41-.63,15.62-.78s10.42-.2,15.63-.22,10.41.06,15.62.22,10.42.36,15.63.78c-5.21.42-10.42.63-15.63.78s-10.41.2-15.62.22-10.42-.06-15.63-.22S147.29,368.41,142.08,368Z" transform="translate(0 32.76)"/></g><path class="cls-22" d="M404.29,348.55l-1.3,7.09-.13.72,2.34,2.5,6-.21.15-.45c.31-.92,1.1-3.23,2.2-6.51Q408.87,350.25,404.29,348.55Z" transform="translate(0 32.76)"/><path class="cls-3" d="M402.19,362.3a72,72,0,0,0,20,5.55,4.18,4.18,0,0,0-1.59-4.44,16.37,16.37,0,0,0-4.34-1.83c-1.49-.52-3.08-1.24-3.81-2.66a1.08,1.08,0,0,0,0-1.48,2.34,2.34,0,0,0-1.45-.65,7.19,7.19,0,0,0-2.77.15,5.33,5.33,0,0,1-2.07.34,2.54,2.54,0,0,1-1.6-1.09c-.2-.28-.48-.6-.73-.94a1.21,1.21,0,0,0-1.75-.18,3.28,3.28,0,0,0-.34.31,9.63,9.63,0,0,1-.61,4.46A1.94,1.94,0,0,0,402.19,362.3Z" transform="translate(0 32.76)"/><path class="cls-11" d="M359.33,327.35c-1-1.28-1.89-2.57-2.78-3.89L349.08,328l-.14.08.26,4.21,3.56,4,.25.54,9.06-4.13Q360.62,330.07,359.33,327.35Z" transform="translate(0 32.76)"/><path class="cls-3" d="M344,331.72a72.33,72.33,0,0,0,9.06,18.67,4.15,4.15,0,0,0,2.28-4.12,16,16,0,0,0-1.5-4.47c-.59-1.47-1.1-3.13-.51-4.62a1.07,1.07,0,0,0,1.12-1,2.26,2.26,0,0,0-.47-1.51,7.21,7.21,0,0,0-1.94-2,5.27,5.27,0,0,1-1.63-1.32,2.51,2.51,0,0,1-.23-1.92c.07-.33.13-.76.21-1.17a1.22,1.22,0,0,0-1-1.44l-.45,0a9.64,9.64,0,0,1-3.75,2.49A2,2,0,0,0,344,331.72Z" transform="translate(0 32.76)"/><path class="cls-10" d="M427.79,312.94c-.5,9.5-14,44-14,44l-11-3L411,308.6l-6.83-24-9.39,30.76a12.19,12.19,0,0,1-2.28,4.24,37.77,37.77,0,0,1-18.73,12c-3,.82-6.08,1.26-9,2.27a42.93,42.93,0,0,0-9.14,4.75,56.84,56.84,0,0,0-2.91-8.44c-.53-1.22-1.09-2.43-1.69-3.63-.07-.13-.13-.27-.2-.4a21.14,21.14,0,0,1,4.57-4.87,37.75,37.75,0,0,1,4.09-2.67,214.25,214.25,0,0,1,20-10.51s1-12.5,3.17-26.66a147.67,147.67,0,0,1,6-24.84l1.7,0,4,.06,24.46.41S428.29,303.44,427.79,312.94Z" transform="translate(0 32.76)"/><path class="cls-13" d="M394.33,256.69c-.92,14.33-3.76,51.78-8.76,55.95-4.61,3.83-27.38,14.88-32.91,17.54-.53-1.22-1.09-2.43-1.69-3.63,8.68-4.17,28.28-13.86,32-17,2.65-2.55,5.75-28.52,7.31-52.94Z" transform="translate(0 32.76)"/><path class="cls-3" d="M404.1,284a50.36,50.36,0,0,1,1.54-5.38,48.18,48.18,0,0,1,2.06-5.21A33.1,33.1,0,0,1,404.1,284Z" transform="translate(0 32.76)"/><path class="cls-3" d="M405.27,284.41a1.66,1.66,0,0,1,1,.57,1.63,1.63,0,0,1,.4,1.06,1.56,1.56,0,0,1-1-.58A1.61,1.61,0,0,1,405.27,284.41Z" transform="translate(0 32.76)"/><path class="cls-3" d="M406,283.9a.85.85,0,0,1,.77-.1.44.44,0,1,1-.28.7A.86.86,0,0,1,406,283.9Z" transform="translate(0 32.76)"/><path class="cls-3" d="M400.79,283.24a.63.63,0,0,1,.59-.24.39.39,0,1,1-.18.73C401,283.68,400.88,283.57,400.79,283.24Z" transform="translate(0 32.76)"/><path class="cls-3" d="M401.28,285.27a.68.68,0,0,1,.33-.58.65.65,0,0,1,.67.08.66.66,0,0,1-.33.59A.69.69,0,0,1,401.28,285.27Z" transform="translate(0 32.76)"/><path class="cls-3" d="M412.53,305.65a7.44,7.44,0,0,0-.42,1.26c-.12.48-.27,1-.45,1.54l-.66-.35a9.84,9.84,0,0,0,.75-1.2A14.54,14.54,0,0,1,412.53,305.65Zm0,0a13.16,13.16,0,0,0-.43,1.39,9.57,9.57,0,0,1-.46,1.44l-.66-.35c.23-.36.49-.7.77-1.1A8.69,8.69,0,0,0,412.53,305.65Z" transform="translate(0 32.76)"/><path class="cls-3" d="M406.55,280.91a28.76,28.76,0,0,1,4,8.41,55.29,55.29,0,0,1,1.76,9.18,120,120,0,0,1,.64,18.67c-.15,3.11-.42,6.22-.81,9.31q-.28,2.32-.66,4.62c-.25,1.54-.51,3.08-.9,4.6a91.28,91.28,0,0,1-2.89,8.89c-1.09,2.91-2.18,5.81-3,8.82.69-3,1.67-6,2.65-9s2-5.88,2.67-8.89a118.83,118.83,0,0,0,2.18-18.44,128,128,0,0,0-.46-18.57,55.4,55.4,0,0,0-1.54-9.14A28.62,28.62,0,0,0,406.55,280.91Z" transform="translate(0 32.76)"/><path class="cls-3" d="M388.14,259.75a1.23,1.23,0,0,1,.74.22,1.2,1.2,0,0,1,.39.67.78.78,0,0,1-.85-.08A.76.76,0,0,1,388.14,259.75Z" transform="translate(0 32.76)"/><path class="cls-3" d="M394.16,260.78a8.58,8.58,0,0,1,6.23-.36,6,6,0,0,0,1.44.34,2.71,2.71,0,0,0,1.33-.4,4.39,4.39,0,0,1,1.59-.53,8.91,8.91,0,0,1,1.63,0c2.09.18,4.17.33,6.25.54s4.16.43,6.23.74c-2.1,0-4.18-.07-6.27-.17s-4.18-.24-6.26-.36a4.94,4.94,0,0,0-2.88.42,3.27,3.27,0,0,1-1.65.43,5.16,5.16,0,0,1-1.59-.43A9.41,9.41,0,0,0,394.16,260.78Z" transform="translate(0 32.76)"/><path class="cls-10" d="M390.28,258.77a4.73,4.73,0,0,1,1.56-.11,4.52,4.52,0,0,1,1.53.36,2.36,2.36,0,0,1-1.59.38A2.39,2.39,0,0,1,390.28,258.77Z" transform="translate(0 32.76)"/><path class="cls-23" d="M398.26,222.5c1.71-4.34.21-13.4,0-14.52,0,0,0-.08,0-.11l11.62,6.53a3.23,3.23,0,0,0-.35,1.28h0a14.23,14.23,0,0,0,.25,3.55c.31,1.76.75,3.26.75,3.26Z" transform="translate(0 32.76)"/><path class="cls-10" d="M409.78,219.24c-6.32.8-9.52-6.75-9.64-7a7.5,7.5,0,0,0,4.51,3.24,12.3,12.3,0,0,0,4.84.24h0A14.23,14.23,0,0,0,409.78,219.24Z" transform="translate(0 32.76)"/><path class="cls-13" d="M420.66,227.93c1,4.44-.14,9.11-.84,13.64a67.37,67.37,0,0,0-.42,16.24,1.53,1.53,0,0,1-1.37,1.67c-4.75.37-9.93-1.51-14.65-1.13-2.66.22-5.25,1.16-7.93,1.17a29.36,29.36,0,0,1-6.72-.84,1.56,1.56,0,0,1-1.2-1.56c.05-.67.27-1.39.3-2.07.06-1.17.33-2.32.43-3.49a24.36,24.36,0,0,0-.58-6.36q-.82-4.53-1.64-9c-.48-2.64-1.41-5.47-.76-8.06a5.05,5.05,0,0,1,2.15-2.95c2-1.3,2.82-2.56,5-3.13,1.65-.42,4.62,0,5.67-1.33a19,19,0,0,0,13.42.83c2.41,1.28,4.64,2.63,7.09,3.9A3.84,3.84,0,0,1,420.66,227.93Z" transform="translate(0 32.76)"/><path class="cls-10" d="M397.62,222.21a16.47,16.47,0,0,0,3.47,1.48,15.61,15.61,0,0,0,3.65.58,15.33,15.33,0,0,0,3.7-.29,15.64,15.64,0,0,0,3.57-1.2,10,10,0,0,1-3.43,1.76,12,12,0,0,1-3.87.48,11.83,11.83,0,0,1-3.81-.79A10.17,10.17,0,0,1,397.62,222.21Z" transform="translate(0 32.76)"/><path class="cls-10" d="M419.08,256.36a58.8,58.8,0,0,1-.37-5.93c0-2,0-4,.16-6s.34-4,.65-5.92a57.15,57.15,0,0,1,1.19-5.82l-.61,5.9c-.18,2-.36,3.92-.49,5.89s-.23,3.93-.33,5.9Z" transform="translate(0 32.76)"/><path class="cls-10" d="M400.08,245.18c1.46-1.53,2.94-3,4.36-4.51s2.81-3.08,4.26-4.62a23.14,23.14,0,0,1-3.71,5.13A22.76,22.76,0,0,1,400.08,245.18Z" transform="translate(0 32.76)"/><path class="cls-10" d="M404.47,245.12a24.12,24.12,0,0,1,1.77-3,22.41,22.41,0,0,1,2.12-2.72,10.39,10.39,0,0,1-1.5,3.15A10.25,10.25,0,0,1,404.47,245.12Z" transform="translate(0 32.76)"/><path class="cls-23" d="M373,234.36c-9.3,6.63-20.06,16-26.9,27.77a5,5,0,0,0-1.79.66c-1.81,1.1-5.94,3.65-5.86,4s1.71.36,1.71.36-.75,1.25.89,1.37c0,0-.35,1.11,1.17,1.46a1.2,1.2,0,0,0,.94,1.25c1,.19,2.62-2.88,3-2.88s-.69,2.25-.25,2.69,2.17-.82,3.05-4.58h0l0-.15q.09-.43.18-.9c.62-.46,17.9-13,31.47-22.43C378.29,240,375.73,237.11,373,234.36Z" transform="translate(0 32.76)"/><path class="cls-13" d="M366.5,236.31s4.37,8.88,8.54,10.63l19.66-12.75s4.42-8.67-2.25-12.17C392.45,222,380.16,224.06,366.5,236.31Z" transform="translate(0 32.76)"/><path class="cls-10" d="M386.62,239.61a6.49,6.49,0,0,1,2.66-2.25,2.94,2.94,0,0,1-1,1.52A3,3,0,0,1,386.62,239.61Z" transform="translate(0 32.76)"/><path class="cls-10" d="M386.94,239.85a1.54,1.54,0,0,1,.87-.31,1.5,1.5,0,0,1,.89.3,1.06,1.06,0,0,1-.88.45A1,1,0,0,1,386.94,239.85Z" transform="translate(0 32.76)"/><path class="cls-10" d="M367.83,235.67a9.69,9.69,0,0,0,1.67,2.58c.67.77,1.4,1.52,2.1,2.3a45.18,45.18,0,0,1,3.9,4.91,45.29,45.29,0,0,1-4.46-4.41,29.86,29.86,0,0,1-2-2.44A6.4,6.4,0,0,1,367.83,235.67Z" transform="translate(0 32.76)"/><path class="cls-23" d="M448.35,265.38c-3.24-1.53-10.88-5.14-19.22-9.16-.87-2.61-1.73-5.24-2.56-7.77l-2.51,1.06c-2.62,1.11-5.29,2.36-8,3.63,1,2.9,2.16,5.92,3.51,9a5.75,5.75,0,0,0,3.32,3.1,91.41,91.41,0,0,0,10.27,3.08,119,119,0,0,0,22.15,3.23l-.62-1.11.92-3S449.41,265.87,448.35,265.38Z" transform="translate(0 32.76)"/><path class="cls-13" d="M415.17,223.37s5.19.94,6.83,7.19,6.28,20.52,6.28,20.52-7.09,5.67-12.7,5.69C415.58,256.77,403.29,226.36,415.17,223.37Z" transform="translate(0 32.76)"/><path class="cls-10" d="M416.67,255.6c1.8-1,3.58-1.9,5.3-2.95s3.39-2.14,5.1-3.26a18.72,18.72,0,0,1-4.72,3.91A19,19,0,0,1,416.67,255.6Z" transform="translate(0 32.76)"/><path class="cls-23" d="M415.69,204.15A29.53,29.53,0,0,0,414,195.1c-1.52-3.9-8.67-5.42-13.66-1.09a4.16,4.16,0,0,0-.42.42c-2,2.08-2.38,5.47-2.25,8.59a1.84,1.84,0,0,0-.3-.12,2.08,2.08,0,0,0-2.34,1.46,2.74,2.74,0,0,0,.36,2.29A3.48,3.48,0,0,0,397,208a4.59,4.59,0,0,0,1.36.13,10,10,0,0,0,3.32,5.65,9.09,9.09,0,0,0,7.74,2c2.16-.44,5.36-1.83,6.15-4.07a5.62,5.62,0,0,0,.24-1.83C415.79,208,415.79,206.09,415.69,204.15Z" transform="translate(0 32.76)"/><path class="cls-10" d="M412.14,202.93c0,.73.28,1.32.64,1.32s.64-.59.64-1.32-.29-1.31-.64-1.31S412.14,202.21,412.14,202.93Z" transform="translate(0 32.76)"/><path class="cls-10" d="M407.87,202.93c0,.73-.28,1.32-.64,1.32s-.64-.59-.64-1.32.29-1.31.64-1.31S407.87,202.21,407.87,202.93Z" transform="translate(0 32.76)"/><path class="cls-10" d="M412.41,206.9a3.09,3.09,0,0,1-1,1.1,2.37,2.37,0,0,1-2.86,0,4.28,4.28,0,0,1-.55-.49c-.15-.19-.3-.39-.43-.59.2.15.38.3.56.45s.38.27.59.38a2.73,2.73,0,0,0,1.26.36,2.53,2.53,0,0,0,1.27-.35A5.62,5.62,0,0,0,412.41,206.9Z" transform="translate(0 32.76)"/><path class="cls-10" d="M410.68,209.23a1,1,0,0,1-.68.22,1.08,1.08,0,0,1-.67-.22,4,4,0,0,0,.68.07A3.11,3.11,0,0,0,410.68,209.23Z" transform="translate(0 32.76)"/><path class="cls-10" d="M408.4,198.39a1.49,1.49,0,0,0-1-.37,3,3,0,0,0-1.06.15,2.66,2.66,0,0,0-1.56,1.35.3.3,0,0,0,.12.41.29.29,0,0,0,.35,0l0,0a4.06,4.06,0,0,1,.63-.5,2.12,2.12,0,0,1,.7-.29,2.4,2.4,0,0,1,.76-.07,3.24,3.24,0,0,0,.81,0l.08,0a.32.32,0,0,0,.23-.39A.27.27,0,0,0,408.4,198.39Z" transform="translate(0 32.76)"/><path class="cls-10" d="M411.61,198.39a1.49,1.49,0,0,1,1-.37,2.91,2.91,0,0,1,1,.15,2.59,2.59,0,0,1,.93.53,2.65,2.65,0,0,1,.64.82.3.3,0,0,1-.12.41.3.3,0,0,1-.36,0l0,0a4.06,4.06,0,0,0-.63-.5,2.12,2.12,0,0,0-.7-.29,2.42,2.42,0,0,0-.76-.07,3.24,3.24,0,0,1-.81,0l-.08,0a.32.32,0,0,1-.23-.39A.27.27,0,0,1,411.61,198.39Z" transform="translate(0 32.76)"/><path class="cls-10" d="M411.3,200.81c.11.49.19,1,.29,1.47a13.47,13.47,0,0,0,.32,1.43,2.24,2.24,0,0,0,.11.34,1.34,1.34,0,0,1,.11.42.88.88,0,0,1-.46.78,1,1,0,0,1-.84,0,2.17,2.17,0,0,1-.66-.39c.46.17,1,.3,1.32.06a.53.53,0,0,0,.23-.47,1,1,0,0,0-.1-.29c-.05-.12-.09-.25-.13-.37a7.09,7.09,0,0,1-.24-1.51A7.63,7.63,0,0,1,411.3,200.81Z" transform="translate(0 32.76)"/><path class="cls-10" d="M395.78,205a1.11,1.11,0,0,1,.34-.87,1,1,0,0,1,1-.09,1.81,1.81,0,0,1,.8.58,3.07,3.07,0,0,1,.5.84.22.22,0,0,1-.12.28.21.21,0,0,1-.24-.05h0a1.87,1.87,0,0,0-.73-.52.36.36,0,0,0-.31,0,.87.87,0,0,0-.22.34c-.11.29-.18.63.07.76a1.64,1.64,0,0,0,1,.07,1.55,1.55,0,0,1-1.07.14.6.6,0,0,1-.37-.5,1.57,1.57,0,0,1,.06-.58,1,1,0,0,1,.31-.54.75.75,0,0,1,.67-.14,2.16,2.16,0,0,1,.95.65l-.37.22a2.28,2.28,0,0,0-1-1.26.78.78,0,0,0-.74-.05A1.07,1.07,0,0,0,395.78,205Z" transform="translate(0 32.76)"/><path class="cls-24" d="M399.62,194.15a13.4,13.4,0,0,0,2.75,2.25,10,10,0,0,1-2,7,5,5,0,0,0-.56,2.43.12.12,0,0,1-.2.11,7.53,7.53,0,0,1-1.95-3S396.33,197.65,399.62,194.15Z" transform="translate(0 32.76)"/><path class="cls-17" d="M407.39,197.22a7.74,7.74,0,0,0,2.68,2.83,3.06,3.06,0,0,0,1.74.57c.61,0,1.43-.35,1.54-1a3.59,3.59,0,0,1,.51,1.61,10.6,10.6,0,0,0,.23,1.68c.14.55.33,1.14.87,1.29a1.36,1.36,0,0,0,1.23-.33,2.61,2.61,0,0,0,.72-1.09,5.53,5.53,0,0,0-.12-4.3,1.86,1.86,0,0,0,1.76-1.78,4.72,4.72,0,0,0-.76-2.62,7.85,7.85,0,0,0-1.54-2.11,3.09,3.09,0,0,0-2.33-.82,2.53,2.53,0,0,0,.45-1,1.4,1.4,0,0,0-.17-1,1.46,1.46,0,0,0-1-.59,3,3,0,0,0-1.15.08,6.39,6.39,0,0,0-2.63,1.24,2.05,2.05,0,0,0-.84-2.26,3.07,3.07,0,0,0-2.48-.35,6.27,6.27,0,0,0-2.26,1.21,13.53,13.53,0,0,0-4.39,5.76,11.46,11.46,0,0,0,3.53,3.2A4,4,0,0,0,407.39,197.22Z" transform="translate(0 32.76)"/><g class="cls-14"><path class="cls-7" d="M369.66,368c4.94-.41,9.88-.63,14.81-.78s9.88-.2,14.82-.22,9.87.06,14.81.22,9.87.36,14.81.78c-4.94.42-9.87.63-14.81.78s-9.88.2-14.81.22-9.88-.06-14.82-.22S374.6,368.41,369.66,368Z" transform="translate(0 32.76)"/></g><path class="cls-25" d="M562,357.59l0,3.11v.73l3.83,2.73,4.76-1.88.07-.48.41-2.55A81.28,81.28,0,0,1,562,357.59Z" transform="translate(0 32.76)"/><path class="cls-10" d="M582.78,367.89a1.93,1.93,0,0,0-.39-2.63,4.74,4.74,0,0,0-2.16-.36,13.57,13.57,0,0,1-4.1-1.19,11.55,11.55,0,0,1-3.52-1.95,7.85,7.85,0,0,0-1.44-1.27,2.73,2.73,0,0,0-2.6.05,3.43,3.43,0,0,0-1.59,2.13,5.3,5.3,0,0,1-3.86-1.42,4,4,0,0,0-.75-.67.86.86,0,0,0-1,0,1.26,1.26,0,0,0-.36,1.06c0,1.09,0,2.18,0,3.27,0,.93,0,2,.81,2.53Z" transform="translate(0 32.76)"/><path class="cls-25" d="M476.06,347.12l-6.48-.08-2.51,3.26,1.66,5.33,6.41,1Q475.53,351.88,476.06,347.12Z" transform="translate(0 32.76)"/><path class="cls-10" d="M463,367.5a1.93,1.93,0,0,0,2.64-.39A4.87,4.87,0,0,0,466,365a13.66,13.66,0,0,1,1.19-4.1,11.55,11.55,0,0,1,1.95-3.52,7.85,7.85,0,0,0,1.27-1.44,2.73,2.73,0,0,0-.05-2.6,3.47,3.47,0,0,0-2.13-1.59,5.27,5.27,0,0,1,1.42-3.86,4,4,0,0,0,.67-.75.88.88,0,0,0,0-.95,1.31,1.31,0,0,0-1.06-.36l-3.27,0c-.93,0-2,0-2.53.81Z" transform="translate(0 32.76)"/><path class="cls-13" d="M518.75,297.33s-5,10.26-5.56,18.37-6,30.87-6,30.87l-35.89.28-1.1,9.48s41.47,7.22,47.87,6.25S533,317.92,533,317.92l9.27-.53L561.71,326l-.53,33.37,10.25.24s7.14-41,6.27-43.36c-1.29-3.53-33.07-18.91-33.07-18.91Z" transform="translate(0 32.76)"/><path class="cls-10" d="M534.2,301.32c0,2.79-.15,5.59-.28,8.38,0,1.4-.16,2.79-.24,4.19l-.25,4.18-.63-.3,5-4.71-.09.24-.09-4.7c0-1.57,0-3.13,0-4.7.16,1.56.28,3.12.4,4.68l.32,4.69v.14l-.11.1-5,4.8-.7.69.07-1,.32-4.18c.11-1.39.2-2.79.34-4.18C533.59,306.88,533.85,304.09,534.2,301.32Z" transform="translate(0 32.76)"/><path class="cls-10" d="M506.55,349.55a10.73,10.73,0,0,1,.59-3.21l.12-.4.36.16a10.61,10.61,0,0,1,2.36,1.41,9.69,9.69,0,0,1-2.62-.72l.48-.24A10.72,10.72,0,0,1,506.55,349.55Z" transform="translate(0 32.76)"/><path class="cls-10" d="M561.37,326.09a1.33,1.33,0,0,1,0-1,1.31,1.31,0,0,1,.68-.74,1.33,1.33,0,0,1,0,1A1.36,1.36,0,0,1,561.37,326.09Z" transform="translate(0 32.76)"/><path class="cls-10" d="M562.63,326a1.11,1.11,0,0,1,.06-.91,1.1,1.1,0,0,1,.72-.57,1.14,1.14,0,0,1-.06.92A1.12,1.12,0,0,1,562.63,326Z" transform="translate(0 32.76)"/><path class="cls-10" d="M538,313.29c4.35,1.82,8.67,3.71,13,5.62s8.6,3.85,12.9,5.78l.23.1V325c-.11,2.74-.26,5.49-.4,8.24l-.43,8.24c-.32,5.49-.64,11-1.06,16.47.08-5.5.27-11,.46-16.5l.33-8.24c.12-2.75.22-5.5.37-8.25l.21.35c-4.27-2-8.57-3.92-12.82-6S542.27,315.37,538,313.29Z" transform="translate(0 32.76)"/><path class="cls-10" d="M522.46,313.32a6.35,6.35,0,0,1,3,.92,6.27,6.27,0,0,1,2.27,2.19c-1-.5-1.78-1.05-2.65-1.55S523.36,313.9,522.46,313.32Z" transform="translate(0 32.76)"/><path class="cls-10" d="M523.72,316a4.76,4.76,0,0,1,1.9.54,4.64,4.64,0,0,1,1.57,1.21,4.71,4.71,0,0,1-1.9-.54A4.64,4.64,0,0,1,523.72,316Z" transform="translate(0 32.76)"/><path class="cls-10" d="M542.88,313.07a4.09,4.09,0,0,1,1.08-1.45,4,4,0,0,1,1.58-.89,4.09,4.09,0,0,1-1.08,1.45A4,4,0,0,1,542.88,313.07Z" transform="translate(0 32.76)"/><path class="cls-10" d="M544.78,313.86a1.53,1.53,0,1,1,1-.48A1.48,1.48,0,0,1,544.78,313.86Z" transform="translate(0 32.76)"/><path class="cls-25" d="M544.91,266.53c-2.45-1.56-4.15-2.14-5.33-3.65-.12-.48-.41-1.68-.61-3a14.06,14.06,0,0,1-.17-3.56h0a3.12,3.12,0,0,1,.38-1.27l-11.47-6.81s0,.07,0,.11c.16,1.09,1.36,9.59-.19,14.05a8.58,8.58,0,0,1-3.29.65,6,6,0,0,0-3.93,1.45c-1.49,1.34-2.81,3.89-2.1,8.72,1.43,9.67,2.71,18.44,1.94,24.3L544,298s.47-9.49,1.36-16.5C546.15,275.16,548.65,268.9,544.91,266.53Z" transform="translate(0 32.76)"/><path class="cls-10" d="M539,259.84c-6.34.65-9.36-7-9.47-7.25a7.46,7.46,0,0,0,4.43,3.34,12.48,12.48,0,0,0,4.83.36h0A14.06,14.06,0,0,0,539,259.84Z" transform="translate(0 32.76)"/><path class="cls-8" d="M527.5,262.19l8.61,5.79,3.79-4.92,4.52,2.93a6.25,6.25,0,0,1,2.83,4.53,17.85,17.85,0,0,1,0,4.55c-.58,3.57-1.63,21.6-.59,23.29L538.49,305l-4.4-4.27-2.85,4.35-11.52-6.27-2.14,2.2s2-9,1.65-13.55-2.43-24.23-2.43-24.23A36.74,36.74,0,0,1,527.5,262.19Z" transform="translate(0 32.76)"/><polygon class="cls-26" points="536.11 300.74 539.9 295.83 541.53 302.49 536.11 300.74"/><polygon class="cls-26" points="536.11 300.74 527.5 294.95 532.75 303.83 536.11 300.74"/><path class="cls-10" d="M536.26,268.23c0,2.72-.15,5.44-.28,8.16s-.33,5.43-.48,8.15-.41,5.43-.66,8.14-.51,5.42-.85,8.12c0-2.72.15-5.44.28-8.16s.32-5.44.48-8.15.4-5.43.65-8.14S535.91,270.93,536.26,268.23Z" transform="translate(0 32.76)"/><path class="cls-10" d="M521,298.12a25,25,0,0,1,10,5c-1.74-.74-3.38-1.58-5-2.41S522.65,299.08,521,298.12Z" transform="translate(0 32.76)"/><path class="cls-10" d="M538.13,303.27a16.33,16.33,0,0,1,3.22-3.42,15.88,15.88,0,0,1,4-2.42c-1.15,1.08-2.35,2-3.54,3S539.43,302.38,538.13,303.27Z" transform="translate(0 32.76)"/><path class="cls-25" d="M564.11,250.66c1.35,1.41,2.62,2.86,3.92,4.26,7.07-7.93,14.29-18,18.05-29.55l-3.71-2.11s-11.54,12.37-22.32,23.55C561.46,248,562.81,249.31,564.11,250.66Z" transform="translate(0 32.76)"/><path class="cls-25" d="M584.07,226.6s5.89-3.57,7.22-5.75a.19.19,0,0,0-.18-.29,5.31,5.31,0,0,0-2.39,1.35s2.2-2.92,2.11-3.58-3.41,2.64-3.41,2.64,2.12-3.54,1.81-4.07S586,220,586,220s2-3.78,1.65-3.9c-.82-.29-3.75,4.94-4.26,4.56s-.29-1.8-.08-2.54a.24.24,0,0,0-.2-.33c-.32,0-.82,0-1.1.77a13.77,13.77,0,0,0-.81,6.95Z" transform="translate(0 32.76)"/><path class="cls-8" d="M539.9,263.06l20.48-16.85,8.65,7.95a51.1,51.1,0,0,1-3.71,5.5c-.94.9-15.33,13.81-18.94,14.81C546.38,274.47,543.44,264.82,539.9,263.06Z" transform="translate(0 32.76)"/><path class="cls-26" d="M563.19,250.87a14.42,14.42,0,0,0,4.76,3.78,1.75,1.75,0,0,0,1,.23.68.68,0,0,0,.61-.7.49.49,0,0,0,.69-.16.79.79,0,0,0,0-.77,2.32,2.32,0,0,0-.54-.59c-2.53-2.19-5.13-4.33-7.79-6.37-.4-.31-1.12-.87-1.65-.51s0,1.09.3,1.5A35.91,35.91,0,0,0,563.19,250.87Z" transform="translate(0 32.76)"/><path class="cls-10" d="M545.74,268.08a7,7,0,0,1,1.32,5.78c-.33-1-.52-1.92-.75-2.87S545.87,269.1,545.74,268.08Z" transform="translate(0 32.76)"/><path class="cls-25" d="M488.83,266c-12.86.92-24.8,1.64-25.38,1.68h0a10.91,10.91,0,0,1-4.35-.64c.15.13.22.23.16.29-.29.24-3.11-1.16-3.76-.38a1.71,1.71,0,0,0-.32,1.63c-.95,1.24,0,1.86,0,1.86-1.19,1.15.4,1.34.4,1.34a6,6,0,0,0,.29.82c.13.29,3.34.47,5.44.17a5,5,0,0,0,1.8-.63c9.22,3.43,19.22,4.59,28.36,4.67A41.55,41.55,0,0,0,488.83,266Z" transform="translate(0 32.76)"/><path class="cls-23" d="M455.53,266.78a32.31,32.31,0,0,1,4.21.06c.66.19,3.19,4.8,3.34,5.13s-.77.11-1.49.19c0,0-.37.72-.95.78a1.86,1.86,0,0,1-1.45.85s-.25.31-1.16.31-3.91-3.09-4.16-3.46S455.53,266.78,455.53,266.78Z" transform="translate(0 32.76)"/><path class="cls-25" d="M458.72,266.74s-2.9-.62-3.45-.61-.74,1.7.09,1.78a1.71,1.71,0,0,0,1.38-.82Z" transform="translate(0 32.76)"/><path class="cls-8" d="M520.74,262.53l-36.1,3.57s.35,10.26.92,10.52,9.14,1.22,10.82.67,23-2.7,23-2.7S526.13,263.57,520.74,262.53Z" transform="translate(0 32.76)"/><path class="cls-26" d="M484.09,265.5a38.55,38.55,0,0,0,.36,9.95,3.25,3.25,0,0,0,.49,1.43,1.19,1.19,0,0,0,1.34.49c.16.47,1.11.18,1.38-.24a2,2,0,0,0,.13-1.44,90.57,90.57,0,0,0-1.9-9.38,1.94,1.94,0,0,0-.64-1.16C484.87,264.9,484.13,265.06,484.09,265.5Z" transform="translate(0 32.76)"/><path class="cls-10" d="M518.06,274.92a1.85,1.85,0,0,1,1.11-.46,1.82,1.82,0,0,1,1.15.3,1.75,1.75,0,0,1-1.1.45A1.83,1.83,0,0,1,518.06,274.92Z" transform="translate(0 32.76)"/><path class="cls-10" d="M526.9,262.63a10.3,10.3,0,0,1-3,8.67,37.56,37.56,0,0,0,1.82-4.22A36.76,36.76,0,0,0,526.9,262.63Z" transform="translate(0 32.76)"/><path class="cls-25" d="M543.75,235.81c-1.42-3.94-8.54-5.62-13.63-1.41-2.37,2-2.94,5.61-2.88,8.94a1.83,1.83,0,0,0-2.67,1.28,2.75,2.75,0,0,0,.3,2.3,3.42,3.42,0,0,0,1.54,1.35,4.29,4.29,0,0,0,1.35.17,10.15,10.15,0,0,0,3.19,5.73,9.12,9.12,0,0,0,7.7,2.14c2.17-.4,5.4-1.7,6.25-3.93a5.54,5.54,0,0,0,.27-1.82C545.34,245.84,545.38,240.31,543.75,235.81Z" transform="translate(0 32.76)"/><path class="cls-10" d="M541.71,243.6c0,.72.25,1.31.6,1.32s.66-.57.68-1.29-.26-1.32-.61-1.33S541.72,242.87,541.71,243.6Z" transform="translate(0 32.76)"/><path class="cls-10" d="M537.44,243.5c0,.72-.32,1.3-.67,1.29s-.63-.6-.61-1.32.32-1.31.67-1.3S537.46,242.77,537.44,243.5Z" transform="translate(0 32.76)"/><path class="cls-10" d="M541.88,247.57a3.07,3.07,0,0,1-1,1.07,2.44,2.44,0,0,1-1.44.45,2.55,2.55,0,0,1-1.42-.53,5.18,5.18,0,0,1-.54-.51c-.14-.19-.29-.39-.41-.59.19.15.37.3.54.46s.38.28.58.39a2.77,2.77,0,0,0,1.26.39,2.59,2.59,0,0,0,1.28-.32A5.52,5.52,0,0,0,541.88,247.57Z" transform="translate(0 32.76)"/><path class="cls-10" d="M540.1,249.85a1,1,0,0,1-.68.21,1.08,1.08,0,0,1-.67-.24,3.25,3.25,0,0,0,.67.09A2.65,2.65,0,0,0,540.1,249.85Z" transform="translate(0 32.76)"/><path class="cls-10" d="M538.08,239a1.56,1.56,0,0,0-1-.39,3.15,3.15,0,0,0-1.06.13,2.65,2.65,0,0,0-.95.51,2.76,2.76,0,0,0-.65.8.31.31,0,0,0,.47.38l0,0a4.1,4.1,0,0,1,.65-.49,2.21,2.21,0,0,1,.7-.27,2.76,2.76,0,0,1,.76-.05,3.19,3.19,0,0,0,.81,0l.08,0a.32.32,0,0,0,.24-.38A.28.28,0,0,0,538.08,239Z" transform="translate(0 32.76)"/><path class="cls-10" d="M541.28,239a1.53,1.53,0,0,1,1-.35,2.94,2.94,0,0,1,1.05.18,2.59,2.59,0,0,1,.92.55,3.05,3.05,0,0,1,.62.83.31.31,0,0,1-.13.42.32.32,0,0,1-.36,0l0,0a4.08,4.08,0,0,0-.62-.51,2.25,2.25,0,0,0-.69-.31,2.78,2.78,0,0,0-.76-.09,3.26,3.26,0,0,1-.81-.06l-.08,0a.31.31,0,0,1-.22-.39A.29.29,0,0,1,541.28,239Z" transform="translate(0 32.76)"/><path class="cls-10" d="M540.92,241.45c.1.5.17,1,.25,1.48a12.92,12.92,0,0,0,.29,1.43c0,.12.06.23.1.35a1.13,1.13,0,0,1,.1.42.86.86,0,0,1-.48.77,1.07,1.07,0,0,1-.84,0,2,2,0,0,1-.65-.41c.46.18,1,.33,1.32.09a.48.48,0,0,0,.24-.46,1.29,1.29,0,0,0-.09-.29,2.65,2.65,0,0,1-.12-.37,7.22,7.22,0,0,1-.21-1.52A8.51,8.51,0,0,1,540.92,241.45Z" transform="translate(0 32.76)"/><path class="cls-10" d="M525.31,245.23a1.1,1.1,0,0,1,.36-.86,1,1,0,0,1,1-.07,1.79,1.79,0,0,1,.78.6,2.84,2.84,0,0,1,.48.85.21.21,0,0,1-.13.28.2.2,0,0,1-.23-.06h0a2,2,0,0,0-.72-.54.36.36,0,0,0-.31,0,1,1,0,0,0-.23.33c-.11.29-.19.62.05.76a1.64,1.64,0,0,0,1,.09,1.55,1.55,0,0,1-1.07.12.58.58,0,0,1-.36-.51,1.57,1.57,0,0,1,.07-.58,1.09,1.09,0,0,1,.33-.53.71.71,0,0,1,.67-.12,2.09,2.09,0,0,1,.94.66l-.38.22a2.33,2.33,0,0,0-1-1.29.81.81,0,0,0-.74-.06A1.06,1.06,0,0,0,525.31,245.23Z" transform="translate(0 32.76)"/><path class="cls-3" d="M546,237.52a3.16,3.16,0,0,0,.77-3.12,3.75,3.75,0,0,0-2.26-2.36,5,5,0,0,0-3.42-.14,6.45,6.45,0,0,0-7.1-3,8.11,8.11,0,0,0-5.45,5.79,4.8,4.8,0,0,0-4.9,2.85c-.86,1.84-.48,4.17.16,6.09a5.51,5.51,0,0,0,2.31,9.12,3,3,0,0,0,.06,2.65,2.3,2.3,0,0,0,2.11,1.18,54,54,0,0,0-.58-8.16,4.09,4.09,0,0,1-1.32-.16,3.45,3.45,0,0,1-1.55-1.35,2.8,2.8,0,0,1-.3-2.29,2.11,2.11,0,0,1,2.25-1.44,5.55,5.55,0,0,1,1,1.09,13.74,13.74,0,0,0,1.57,2.05,2.4,2.4,0,0,0,2.37.62,1.48,1.48,0,0,1-.64-1.66,11.79,11.79,0,0,1,.71-1.78,4.53,4.53,0,0,0,0-3.32,2.43,2.43,0,0,0,1.57-1,2.59,2.59,0,0,0,.47-1.91,4.6,4.6,0,0,0,3.8,2.92A4.78,4.78,0,0,0,542,238a2.43,2.43,0,0,0,.44,2.37,2.9,2.9,0,0,0,2.41,1.1,7.17,7.17,0,0,0-.35,1.87,2.63,2.63,0,0,0,.69,1.78l0-.15V245a2.34,2.34,0,0,0,.4-2.24,3.38,3.38,0,0,0,1.66-2.51A3.54,3.54,0,0,0,546,237.52Z" transform="translate(0 32.76)"/><g class="cls-14"><path class="cls-7" d="M459.66,368q15.73-.58,31.48-.78c10.49-.16,21-.2,31.48-.22s21,.06,31.48.22,21,.39,31.48.78q-15.74.58-31.48.78c-10.49.16-21,.2-31.48.22s-21-.06-31.48-.22S470.15,368.39,459.66,368Z" transform="translate(0 32.76)"/></g><path class="cls-27" d="M668.06,365.24c-4.69.61-10.65-3.35-11.53-3.95.32-1.79,1.26-7.14,2.45-14.29-3.94-.46-7.88-1-11.81-1.56l.54,13.8a30.48,30.48,0,0,0-1.29,6.7,1.52,1.52,0,0,0,1.51,1.3H668.1a.75.75,0,0,0,.6-.28,1.09,1.09,0,0,0,.11-1.43A.79.79,0,0,0,668.06,365.24Z" transform="translate(0 32.76)"/><path class="cls-10" d="M646.08,364.89l14.25,1s-.29-2.41,1.29-2.62,5.15.89,6.71,1.62c.53.26,1.75,1.05.33,2.34H646.75a.8.8,0,0,1-.71-.42A2,2,0,0,1,646.08,364.89Z" transform="translate(0 32.76)"/><path class="cls-27" d="M640.49,363.38a27.55,27.55,0,0,1-6-6.55l3.76-8.47c-.85-.21-1.71-.43-2.57-.62-2.83-.62-5.68-1.21-8.46-1.95-1,4.15-1.64,6.91-1.78,7.49h0a12.76,12.76,0,0,0-2.07,4.29,1.52,1.52,0,0,0,.91,1.77l15.57,6.28A4,4,0,0,1,640.49,363.38Z" transform="translate(0 32.76)"/><path class="cls-10" d="M623.21,358.16l13.06,5.78s.55-2.38,2.11-2,4.54,2.58,5.76,3.8c.41.42,1.29,1.58-.48,2.31L623,360.58a.8.8,0,0,1-.52-.63A2,2,0,0,1,623.21,358.16Z" transform="translate(0 32.76)"/><path class="cls-27" d="M681.7,222.93h0l-3.44-2.07-.51.86c-1.41,2.36-5.58,9.3-10.48,17.22-.74-1.79-1.4-3.44-2-4.9a30.88,30.88,0,0,0-3.3-6.54c-4-5.85-12.27-4.53-13.13,2.15-.32,2.48.09,5.65,1.9,9.62s4.11,9,7.13,14.53q1.13,2.05,2.37,4.17a6.93,6.93,0,0,0,12.13-.48c.54-1.07,1.07-2.17,1.59-3.29C678.48,244.65,682.12,233.61,681.7,222.93Z" transform="translate(0 32.76)"/><path class="cls-10" d="M664,249.14a13.44,13.44,0,0,1,3.41-10.3,44.13,44.13,0,0,0-2.08,5A43.21,43.21,0,0,0,664,249.14Z" transform="translate(0 32.76)"/><path class="cls-3" d="M676.92,213.05s1.42,9,7,10.82a.37.37,0,0,0,.31,0,11.84,11.84,0,0,0,3.93-4.15.35.35,0,0,0-.14-.44c-1.31-.76-7.08-4.29-7.46-7.42Z" transform="translate(0 32.76)"/><path class="cls-3" d="M678.74,203s7.65-1.88,13.26-11.32l6.08,22.54a24.51,24.51,0,0,0-16.87-1.45Z" transform="translate(0 32.76)"/><path class="cls-28" d="M696.92,202.4c1.68,6.23,2.2,11.5,1.16,11.78-.79.21-2.25-2.53-3.65-6.6-.44-1.27-.87-2.68-1.27-4.16s-.73-2.91-1-4.23c-.85-4.22-1-7.33-.17-7.55C693,191.36,695.25,196.18,696.92,202.4Z" transform="translate(0 32.76)"/><path class="cls-9" d="M676.24,203.31h5.06a0,0,0,0,1,0,0v10.54a0,0,0,0,1,0,0h-5.06a3.15,3.15,0,0,1-3.15-3.15v-4.24A3.15,3.15,0,0,1,676.24,203.31Z" transform="translate(-30.95 216.39) rotate(-15.1)"/><path class="cls-9" d="M672.65,208.86h.91a0,0,0,0,1,0,0v1.82a0,0,0,0,1,0,0h-.91A.65.65,0,0,1,672,210v-.52a.65.65,0,0,1,.65-.65Z" transform="translate(-31.42 215.3) rotate(-15.1)"/><path class="cls-9" d="M695.32,202.84c.65,2.41.48,4.57-.39,4.8a.74.74,0,0,1-.5-.06c-.44-1.27-.87-2.68-1.27-4.16s-.73-2.91-1-4.23a.72.72,0,0,1,.39-.31C693.43,198.65,694.67,200.42,695.32,202.84Z" transform="translate(0 32.76)"/><path class="cls-27" d="M681.87,222.82s-.93-1-1.61-1.7c.11-1.31-1.48-3.14-1.48-3.14s.81-2.66-.72-1.88-.32,5.62-.32,5.62a2.82,2.82,0,0,0,.9.27l3.06.94Z" transform="translate(0 32.76)"/><path class="cls-27" d="M680,217.61a5,5,0,0,1,1-2.87c.34-.45.73-.83,1.05-.73.75.22.66.78.66.78s1.43-.19,1.34,1c0,0,1.28.25,1.41,1.13,0,0,.87.75.93,1.06s-1.87,1.94-2.22,1.9-.06-1.31-.06-1.31-1,1.35-1.28,1.19.19-2.31.19-2.31-1.47,2-1.81,1.59.43-2.69.43-2.69-1.15,2.07-1.5,1.94C680.06,218.28,680,218,680,217.61Z" transform="translate(0 32.76)"/><path class="cls-27" d="M656.47,235.74c-.59-4.33-2-8.53-1.93-12.93,0-.16,0-.31,0-.46a5.59,5.59,0,0,1-1.68-1.34c-.1-.43-.19-.9-.28-1.4a13.77,13.77,0,0,1-.25-3.55h0a3.07,3.07,0,0,1,.35-1.28l-11.62-6.53a.43.43,0,0,0,0,.11c.17,1,1.38,8.35.41,13a11.15,11.15,0,0,1-3.84.77,7.88,7.88,0,0,0-4.14,1.26c-1.67,1.12-3.29,3.28-3,7.49.63,9.39,4.63,18.92,3.12,26.36l18.85.24a4.86,4.86,0,0,1,.13-.81c1.44-5.82,2.76-11.67,4.21-17.49v0C656.75,238,656.63,236.86,656.47,235.74Z" transform="translate(0 32.76)"/><path class="cls-29" d="M652.61,219.61c-6.32.8-9.52-6.75-9.64-7a7.5,7.5,0,0,0,4.51,3.24,12.55,12.55,0,0,0,4.84.25h0A13.77,13.77,0,0,0,652.61,219.61Z" transform="translate(0 32.76)"/><path class="cls-3" d="M666.24,274.16c0-.22,0-.45,0-.68-.5-9.5-4.63-18.75-4.63-18.75s2.75-17.13,2.63-19.63c-.07-1.35-1.51-4.39-2.82-6.9a11.26,11.26,0,0,0-4.89-4.84,18,18,0,0,1-3.42-2.26c.75,4.75-1.37,17.25-1.37,17.25l-.49-1.46a37.6,37.6,0,0,0-7.42-13l-2.47-2.81s-3.25.5-6.5,1.25-7.62,8-5.62,11.13c1.41,2.21,2.77,12.39,3.44,18.14a8.35,8.35,0,0,1-1.72,6.24c-4.67,5.78-6.27,14.3-6.81,19.58h0a7.48,7.48,0,0,0-.16,2.28,29.57,29.57,0,0,0,.79,6.56c1.49,6.23,4.69,18.31,9,26.69-.43,1.87-1.82,4.15-2.53,6a60.65,60.65,0,0,0-3.41,10.52,50.11,50.11,0,0,0-1.06,9.52,17.13,17.13,0,0,1-.4,4.1c-.22.86-1,1.74-1,2.59a18.2,18.2,0,0,0,14.74,3.67s3.06-7,6.37-14.87a32,32,0,0,1-1.22,13.32,22.36,22.36,0,0,0,15.21,2.27c2.26-13.09,5.46-26,7.13-39.22C669.15,298.67,669.33,286.06,666.24,274.16Z" transform="translate(0 32.76)"/><path class="cls-10" d="M639.79,222.2a56.38,56.38,0,0,1,6,7.62,63.57,63.57,0,0,1,4.64,8.5,2.31,2.31,0,0,0,.53.86c.18.13.34.1.55-.15a5.7,5.7,0,0,0,.49-1c.16-.37.3-.74.44-1.11a32.87,32.87,0,0,0,1.36-4.57,35.06,35.06,0,0,0,.78-9.54,29.61,29.61,0,0,1-1.5,14.35c-.14.38-.28.76-.44,1.14a5.37,5.37,0,0,1-.57,1.16,1.22,1.22,0,0,1-.68.48,1.06,1.06,0,0,1-.87-.18,2.8,2.8,0,0,1-.77-1.15,72.32,72.32,0,0,0-4.45-8.5A85.13,85.13,0,0,0,639.79,222.2Z" transform="translate(0 32.76)"/><path class="cls-10" d="M633,259a17.38,17.38,0,0,1-.24,4.66,18.81,18.81,0,0,1-3.91,8.46,9.16,9.16,0,0,1-1.68,1.67,1.84,1.84,0,0,1-2.26,0,1.74,1.74,0,0,0,2-.28,9,9,0,0,0,1.44-1.73,27.66,27.66,0,0,0,2.27-3.95,27.07,27.07,0,0,0,1.54-4.29A29.82,29.82,0,0,0,633,259Z" transform="translate(0 32.76)"/><path class="cls-10" d="M646.87,333.64a17.13,17.13,0,0,1,1.07-3.22l1.27-3.15,2.65-6.27c.86-2.1,1.78-4.17,2.59-6.28a8,8,0,0,0,.79-3.14,31.9,31.9,0,0,0-.31-3.34c-.57-4.48-1.42-8.93-2.24-13.39l-2.49-13.37c1.12,4.39,2.12,8.82,3.06,13.26s1.78,8.9,2.41,13.41c.14,1.13.26,2.26.29,3.43a8.58,8.58,0,0,1-.88,3.39c-.85,2.12-1.75,4.2-2.7,6.26l-2.83,6.18-1.43,3.09-.69,1.55A7.35,7.35,0,0,0,646.87,333.64Z" transform="translate(0 32.76)"/><path class="cls-10" d="M634,312.64c.13-.1.14-.28.18-.43l.07-.5.09-.49a2.44,2.44,0,0,1,.18-.58l.59.36a2.92,2.92,0,0,0-.35,1.5,1.15,1.15,0,0,0,.36.61,3.84,3.84,0,0,0,.72.53,2.07,2.07,0,0,1-1-.16,1.41,1.41,0,0,1-.75-.8,1.93,1.93,0,0,1,0-1.09,3.75,3.75,0,0,1,.4-.91l.59.35s-.11.24-.17.37-.14.31-.22.46a2.6,2.6,0,0,1-.28.45C634.34,312.44,634.24,312.64,634,312.64Z" transform="translate(0 32.76)"/><path class="cls-10" d="M627.12,344.68a48.58,48.58,0,0,0,5.74,2.23,49.13,49.13,0,0,0,6,1.41,16.56,16.56,0,0,1-11.75-3.64Z" transform="translate(0 32.76)"/><path class="cls-10" d="M635.69,274.66a13.72,13.72,0,0,1,6.51,4,35,35,0,0,1-6.51-4Z" transform="translate(0 32.76)"/><path class="cls-10" d="M638,278.14a7.81,7.81,0,0,1,2.42.84,7.54,7.54,0,0,1,2.08,1.5,7.9,7.9,0,0,1-2.42-.84A8.08,8.08,0,0,1,638,278.14Z" transform="translate(0 32.76)"/><path class="cls-10" d="M646,346.81a24.89,24.89,0,0,0,13.53,1.77A14.55,14.55,0,0,1,646,346.81Z" transform="translate(0 32.76)"/><path class="cls-10" d="M662.36,259.18a28.38,28.38,0,0,0-.25,4.1,25.94,25.94,0,0,0,.39,4,24,24,0,0,0,1.06,3.91,8.2,8.2,0,0,0,.83,1.83,3.12,3.12,0,0,0,1.45,1.35,3,3,0,0,1-1.75-1.13,9.12,9.12,0,0,1-1.07-1.83,16.31,16.31,0,0,1-1.25-4,16.76,16.76,0,0,1-.24-4.18A15.34,15.34,0,0,1,662.36,259.18Z" transform="translate(0 32.76)"/><path class="cls-10" d="M650.67,283.76a4.81,4.81,0,0,1,.61-1.94,5,5,0,0,1,1.26-1.59,5,5,0,0,1-.6,1.94A5.19,5.19,0,0,1,650.67,283.76Z" transform="translate(0 32.76)"/><path class="cls-10" d="M655.54,279a13.18,13.18,0,0,1,4.66-4.16,11.77,11.77,0,0,1-2.08,2.36A12,12,0,0,1,655.54,279Z" transform="translate(0 32.76)"/><rect class="cls-9" x="642.37" y="244.68" width="17.37" height="25.5" rx="0.89" transform="translate(62.28 -88.61) rotate(11.18)"/><path class="cls-27" d="M631.68,246.17c2-2.8,3.8-5.31,5.35-7.3a31.53,31.53,0,0,0,3.87-6.23c2.9-6.45-2.55-12.82-8.7-10.08-2.28,1-4.77,3-7.21,6.64-1.84,2.73-4.16,6.18-6.59,10.15-.73,1.2-1.47,2.44-2.2,3.73A8.44,8.44,0,0,0,621,255.31c1.2.37,2.41.73,3.63,1.06,7.49,2,15.39,3.11,22.93,2.17l1.77-3.61S641.37,251.05,631.68,246.17Z" transform="translate(0 32.76)"/><path class="cls-27" d="M647,257.91s4.92,4.82,7.35,5.58a.18.18,0,0,0,.23-.24c-.12-.32-.53-.94-1.9-2,0,0,3.36,1.42,4,1.18s-3.39-2.66-3.39-2.66,3.94,1.19,4.36.77-3.81-2.34-3.81-2.34,4.13,1,4.16.66c.07-.87-5.69-2.43-5.46-3s1.66-.72,2.42-.69a.25.25,0,0,0,.27-.28c0-.31-.22-.78-1-.86a13.44,13.44,0,0,0-6.88.89Z" transform="translate(0 32.76)"/><path class="cls-10" d="M623.32,243.74a13.42,13.42,0,0,1,8.32,2.42c-1.43-.35-2.79-.79-4.17-1.18S624.72,244.21,623.32,243.74Z" transform="translate(0 32.76)"/><path class="cls-27" d="M658.55,205.46a31.2,31.2,0,0,0-1.72-10c-1.52-3.91-8.68-5.43-13.66-1.09-2.32,2-2.81,5.67-2.67,9a1.84,1.84,0,0,0-.3-.12,2.08,2.08,0,0,0-2.34,1.47,2.71,2.71,0,0,0,.36,2.28,3.43,3.43,0,0,0,1.57,1.32,4.59,4.59,0,0,0,1.36.13,10,10,0,0,0,3.32,5.66,9.09,9.09,0,0,0,7.74,2c2.16-.45,5.36-1.83,6.15-4.07a5.42,5.42,0,0,0,.23-1.83v-.44C658.61,208.37,658.61,206.92,658.55,205.46Z" transform="translate(0 32.76)"/><path class="cls-29" d="M658.59,209.75a1.77,1.77,0,0,1-.56.08,2.22,2.22,0,0,1,0-4.44,1.81,1.81,0,0,1,.52.07C658.61,206.92,658.61,208.37,658.59,209.75Z" transform="translate(0 32.76)"/><path class="cls-29" d="M644.78,207.61a2.22,2.22,0,1,0,2.22-2.22A2.22,2.22,0,0,0,644.78,207.61Z" transform="translate(0 32.76)"/><path class="cls-10" d="M654.65,203.31c0,.72.28,1.31.64,1.31s.64-.59.64-1.31-.29-1.32-.64-1.32S654.65,202.58,654.65,203.31Z" transform="translate(0 32.76)"/><path class="cls-10" d="M656.59,201.58a1.79,1.79,0,0,1-.43.56,1.54,1.54,0,0,1-.67.35h0a.24.24,0,0,1-.11-.46h.07a1.38,1.38,0,0,0,1-.52h0a.07.07,0,0,1,.11,0A.07.07,0,0,1,656.59,201.58Z" transform="translate(0 32.76)"/><path class="cls-10" d="M650.38,203.31c0,.72-.29,1.31-.64,1.31s-.64-.59-.64-1.31.29-1.32.64-1.32S650.38,202.58,650.38,203.31Z" transform="translate(0 32.76)"/><path class="cls-10" d="M648.56,201.5a1.4,1.4,0,0,0,1,.52.25.25,0,0,1,.25.23.23.23,0,0,1-.23.24h-.07a1.54,1.54,0,0,1-.67-.35,1.82,1.82,0,0,1-.44-.56.07.07,0,0,1,0-.1.07.07,0,0,1,.09,0Z" transform="translate(0 32.76)"/><path class="cls-10" d="M654.92,207.27a3.09,3.09,0,0,1-1,1.1,2.33,2.33,0,0,1-2.86,0,4.28,4.28,0,0,1-.55-.49c-.15-.19-.3-.39-.43-.59.2.15.38.3.56.45s.38.27.58.38a2.8,2.8,0,0,0,1.27.36,2.53,2.53,0,0,0,1.27-.35A5.26,5.26,0,0,0,654.92,207.27Z" transform="translate(0 32.76)"/><path class="cls-10" d="M653.19,209.6a1.07,1.07,0,0,1-.68.23,1.15,1.15,0,0,1-.67-.23,4,4,0,0,0,.67.07A3.14,3.14,0,0,0,653.19,209.6Z" transform="translate(0 32.76)"/><path class="cls-10" d="M650.91,198.76a1.51,1.51,0,0,0-1-.37,3,3,0,0,0-1.06.15,2.78,2.78,0,0,0-.93.53,2.9,2.9,0,0,0-.63.82.31.31,0,0,0,.12.42.3.3,0,0,0,.35-.05l0,0a4.06,4.06,0,0,1,.63-.5,2.12,2.12,0,0,1,.7-.29,2.4,2.4,0,0,1,.76-.07,2.85,2.85,0,0,0,.81,0l.08,0a.32.32,0,0,0,.23-.39A.27.27,0,0,0,650.91,198.76Z" transform="translate(0 32.76)"/><path class="cls-10" d="M654.11,198.76a1.53,1.53,0,0,1,1-.37,2.91,2.91,0,0,1,1,.15,2.59,2.59,0,0,1,.93.53,2.77,2.77,0,0,1,.64.82.31.31,0,0,1-.12.42.32.32,0,0,1-.36-.05l0,0a4.06,4.06,0,0,0-.63-.5,2.12,2.12,0,0,0-.7-.29,2.42,2.42,0,0,0-.76-.07,2.83,2.83,0,0,1-.81,0l-.08,0a.32.32,0,0,1-.23-.39A.32.32,0,0,1,654.11,198.76Z" transform="translate(0 32.76)"/><path class="cls-10" d="M652.66,201.3c.12.5.2,1,.29,1.47s.18,1,.32,1.43a3.38,3.38,0,0,0,.11.34,1.34,1.34,0,0,1,.11.42.84.84,0,0,1-.46.78,1,1,0,0,1-.83,0,1.94,1.94,0,0,1-.67-.39c.46.17,1,.31,1.32.06a.48.48,0,0,0,.23-.47,1.29,1.29,0,0,0-.09-.29,2.32,2.32,0,0,1-.13-.37,6.51,6.51,0,0,1-.24-1.51A8.5,8.5,0,0,1,652.66,201.3Z" transform="translate(0 32.76)"/><path class="cls-10" d="M638.66,205.44a1.09,1.09,0,0,1,.35-.86,1,1,0,0,1,1-.1,1.92,1.92,0,0,1,.79.58,3.11,3.11,0,0,1,.5.84.22.22,0,0,1-.12.29.23.23,0,0,1-.24-.05v0a2,2,0,0,0-.74-.52.33.33,0,0,0-.31,0,.8.8,0,0,0-.22.34c-.11.28-.17.62.07.75a1.65,1.65,0,0,0,1,.07,1.5,1.5,0,0,1-1.07.14.58.58,0,0,1-.37-.5,1.57,1.57,0,0,1,.06-.58,1.15,1.15,0,0,1,.31-.54.72.72,0,0,1,.67-.13,2,2,0,0,1,1,.64l-.38.22a2.38,2.38,0,0,0-1-1.26.87.87,0,0,0-.75,0A1.16,1.16,0,0,0,638.66,205.44Z" transform="translate(0 32.76)"/><path class="cls-13" d="M667.71,228.13s0,0,0-.07c-.48-2.4-1.53-4.69-1.72-7.14s.53-5.07,0-7.54c-.57-2.73-2.56-4.9-4.26-7.11s-3.67-5.05-2.82-7.72a5.82,5.82,0,0,0,0-4.07c-2.18-5-7.58-6-11.93-4.53-2.88,1-5.28,3.1-7.39,5.28a1.37,1.37,0,0,0-1.35.28,2,2,0,0,0-.36,1.47,12.28,12.28,0,0,1-2.74,8.43c-1.31,1.59-3,2.84-4.1,4.6s-1.25,4.35.36,5.63a13.61,13.61,0,0,0-3,9c0,.17,0,.35,0,.52a14,14,0,0,1,3.79-2.57,6.79,6.79,0,0,1,4.15-.53c2.69-.57,5-.93,5-.93l.16.19c.92-4.49-.17-11.44-.4-12.81a4.37,4.37,0,0,1-1.34-.14,3.47,3.47,0,0,1-1.57-1.31,2.74,2.74,0,0,1-.36-2.29,2.07,2.07,0,0,1,2.34-1.47,1.13,1.13,0,0,1,.22.09l.14.27a1.66,1.66,0,0,0,.83.84,1.26,1.26,0,0,0,1.37-.55,3.64,3.64,0,0,0,.45-1.49,1.34,1.34,0,0,0,1.27-.22,2.58,2.58,0,0,0,.78-1.06,5.36,5.36,0,0,0,.22-3.72,25.37,25.37,0,0,1,5-.73,9.84,9.84,0,0,1,4.89,1.13,5.9,5.9,0,0,1,2.9,3.6c.16,1.34.26,2.69.31,4s.06,2.91,0,4.29v.44a5.42,5.42,0,0,1-.23,1.83c-.77,2.19-3.85,3.56-6,4h0a13.85,13.85,0,0,0,.25,3.56c.09.5.18,1,.28,1.41a3.38,3.38,0,0,0,.26.27l0-.2a18,18,0,0,0,3.42,2.26,10,10,0,0,1,1.53.94h0A8.48,8.48,0,0,1,662,227.5a30.56,30.56,0,0,1,3.2,6.28A5.45,5.45,0,0,0,667.71,228.13Z" transform="translate(0 32.76)"/><g class="cls-14"><path class="cls-7" d="M615.91,368c4.81-.41,9.61-.63,14.42-.78s9.61-.2,14.41-.22,9.62.06,14.42.22,9.61.36,14.42.78c-4.81.42-9.61.63-14.42.78s-9.61.2-14.42.22-9.61-.06-14.41-.22S620.72,368.41,615.91,368Z" transform="translate(0 32.76)"/></g></g><g id="DESIGNED_BY_FREEPIK" data-name="DESIGNED BY FREEPIK"><path class="cls-30" d="M644.08,371.13a3.35,3.35,0,0,0-.56.74l-.24-.13a.29.29,0,0,0-.33-.23.31.31,0,0,0,.07.61l.09,0,.23.12a3.4,3.4,0,0,0-.27.89l.38.06a3.29,3.29,0,0,1,.91-1.76Z" transform="translate(0 32.76)"/><path class="cls-30" d="M646.87,370h-.26l0-.32a.37.37,0,0,0,.13-.33.36.36,0,0,0-.4-.32.37.37,0,0,0-.32.41.33.33,0,0,0,.2.28l0,.32a4,4,0,0,0-1.05.33l.17.35a3.46,3.46,0,0,1,1.52-.35,3.74,3.74,0,0,1,.75.08l.08-.37A3.84,3.84,0,0,0,646.87,370Z" transform="translate(0 32.76)"/><path class="cls-30" d="M650.23,371.25a.3.3,0,0,0,.27-.34.31.31,0,0,0-.62,0l-.21.19a4,4,0,0,0-.71-.58l-.21.33a3.33,3.33,0,0,1,1.3,1.48l.36-.16a3.89,3.89,0,0,0-.48-.78l.2-.18Z" transform="translate(0 32.76)"/><path class="cls-30" d="M646.59,375.15H646a8.11,8.11,0,0,1-1.26-.09,4.23,4.23,0,0,1-.65-.14,3.15,3.15,0,0,0,5.76-.71,5,5,0,0,1-1.25.58A9.34,9.34,0,0,1,646.59,375.15Z" transform="translate(0 32.76)"/><path class="cls-30" d="M646.87,370.73a3.06,3.06,0,0,0-3.09,3,3.39,3.39,0,0,0,.07.64,5.17,5.17,0,0,0,2.72.37,5.87,5.87,0,0,0,3.39-1.09c0-.1,0-.2,0-.3A3.06,3.06,0,0,0,646.87,370.73Zm-1.1,3.31a.94.94,0,1,1,.94-.94A.95.95,0,0,1,645.77,374Zm2.41-.46a.69.69,0,1,1,.69-.69A.69.69,0,0,1,648.18,373.58Z" transform="translate(0 32.76)"/><path class="cls-30" d="M655,371.68a1.4,1.4,0,0,0-.71-.12c-.28,0-.42.17-.42.51v.44H655v.87h-1.13v2.77h-1v-2.77h-.68v-.87h.68v-.45a1.26,1.26,0,0,1,1.31-1.42,1.91,1.91,0,0,1,.81.16Z" transform="translate(0 32.76)"/><path class="cls-30" d="M657.4,373.37l-.27,0a.73.73,0,0,0-.77.82v2h-1v-3.64h1v.4a1.16,1.16,0,0,1,1-.5,1,1,0,0,1,.56.17Z" transform="translate(0 32.76)"/><path class="cls-30" d="M661.29,374.33c0,.11,0,.24,0,.33h-2.59a.88.88,0,0,0,.94.75,1.43,1.43,0,0,0,.92-.35l.58.64a2.24,2.24,0,0,1-1.56.55,1.92,1.92,0,0,1-.05-3.84A1.76,1.76,0,0,1,661.29,374.33Zm-2.6-.34h1.62a.79.79,0,0,0-.8-.73A.8.8,0,0,0,658.69,374Z" transform="translate(0 32.76)"/><path class="cls-30" d="M665.18,374.33c0,.11,0,.24,0,.33h-2.59a.88.88,0,0,0,.94.75,1.43,1.43,0,0,0,.92-.35l.58.64a2.24,2.24,0,0,1-1.56.55,1.92,1.92,0,0,1-.05-3.84A1.76,1.76,0,0,1,665.18,374.33Zm-2.6-.34h1.62a.79.79,0,0,0-.8-.73A.8.8,0,0,0,662.58,374Z" transform="translate(0 32.76)"/><path class="cls-30" d="M669.43,374.33a1.81,1.81,0,0,1-1.77,1.92,1.31,1.31,0,0,1-1.07-.48v1.89h-1v-5.15h1v.4a1.32,1.32,0,0,1,1.09-.5A1.81,1.81,0,0,1,669.43,374.33Zm-2.89,0a.94.94,0,1,0,.94-1A.93.93,0,0,0,666.54,374.33Z" transform="translate(0 32.76)"/><path class="cls-30" d="M671,371.32a.63.63,0,0,1-1.25,0,.63.63,0,1,1,1.25,0Zm-.13,4.83h-1v-3.64h1Z" transform="translate(0 32.76)"/><path class="cls-30" d="M672.51,373.81l1.37-1.3h1.21l-1.77,1.71,1.78,1.93h-1.21l-1.38-1.47v1.47h-1v-5.41h1Z" transform="translate(0 32.76)"/><path class="cls-30" d="M605.61,376.12v-.53a1.53,1.53,0,0,1-1.21.62c-.94,0-1.6-.71-1.6-1.88s.65-1.89,1.6-1.89a1.48,1.48,0,0,1,1.21.63v-1.91h.56v5Zm0-1v-1.63a1.32,1.32,0,0,0-1.08-.58c-.72,0-1.15.59-1.15,1.39s.43,1.38,1.15,1.38A1.33,1.33,0,0,0,605.61,375.15Z" transform="translate(0 32.76)"/><path class="cls-30" d="M606.89,374.32a1.8,1.8,0,0,1,1.77-1.88,1.74,1.74,0,0,1,1.73,1.92v.15h-2.91a1.26,1.26,0,0,0,1.29,1.24,1.57,1.57,0,0,0,1.11-.45l.27.36a1.94,1.94,0,0,1-1.43.55A1.79,1.79,0,0,1,606.89,374.32Zm1.77-1.42a1.2,1.2,0,0,0-1.18,1.2h2.36A1.17,1.17,0,0,0,608.66,372.9Z" transform="translate(0 32.76)"/><path class="cls-30" d="M610.79,375.65l.29-.41a1.62,1.62,0,0,0,1.19.52c.55,0,.85-.26.85-.62,0-.87-2.23-.34-2.23-1.67,0-.56.48-1,1.34-1a1.81,1.81,0,0,1,1.33.52l-.26.38a1.39,1.39,0,0,0-1.07-.45c-.49,0-.8.25-.8.57,0,.79,2.23.26,2.23,1.66,0,.61-.49,1.09-1.42,1.09A2,2,0,0,1,610.79,375.65Z" transform="translate(0 32.76)"/><path class="cls-30" d="M614.28,371.64a.38.38,0,0,1,.76,0,.38.38,0,0,1-.76,0Zm.1,4.48v-3.59h.56v3.59Z" transform="translate(0 32.76)"/><path class="cls-30" d="M615.86,377.05l.28-.42a1.37,1.37,0,0,0,1.17.49,1,1,0,0,0,1.16-1.08v-.51a1.52,1.52,0,0,1-1.21.64,1.64,1.64,0,0,1-1.6-1.86c0-1.16.66-1.87,1.6-1.87a1.47,1.47,0,0,1,1.21.63v-.54H619V376c0,1.19-.84,1.56-1.72,1.56A1.86,1.86,0,0,1,615.86,377.05Zm2.61-2v-1.57a1.32,1.32,0,0,0-1.07-.58c-.73,0-1.16.57-1.16,1.37s.43,1.37,1.16,1.37A1.36,1.36,0,0,0,618.47,375.09Z" transform="translate(0 32.76)"/><path class="cls-30" d="M622.38,376.12v-2.35c0-.63-.32-.83-.8-.83a1.36,1.36,0,0,0-1.06.55v2.63H620v-3.59h.56v.52a1.76,1.76,0,0,1,1.28-.61,1,1,0,0,1,1.14,1.16v2.52Z" transform="translate(0 32.76)"/><path class="cls-30" d="M623.66,374.32a1.8,1.8,0,0,1,1.78-1.88,1.74,1.74,0,0,1,1.72,1.92v.15h-2.91a1.27,1.27,0,0,0,1.3,1.24,1.58,1.58,0,0,0,1.11-.45l.27.36a2,2,0,0,1-1.43.55A1.79,1.79,0,0,1,623.66,374.32Zm1.77-1.42a1.2,1.2,0,0,0-1.18,1.2h2.36A1.16,1.16,0,0,0,625.43,372.9Z" transform="translate(0 32.76)"/><path class="cls-30" d="M630.48,376.12v-.53a1.5,1.5,0,0,1-1.21.62c-.94,0-1.6-.71-1.6-1.88a1.67,1.67,0,0,1,1.6-1.89,1.48,1.48,0,0,1,1.21.63v-1.91H631v5Zm0-1v-1.63a1.32,1.32,0,0,0-1.08-.58c-.72,0-1.15.59-1.15,1.39s.43,1.38,1.15,1.38A1.33,1.33,0,0,0,630.48,375.15Z" transform="translate(0 32.76)"/><path class="cls-30" d="M633.71,376.12v-5h.56v1.91a1.47,1.47,0,0,1,1.21-.63,1.67,1.67,0,0,1,1.6,1.89c0,1.17-.66,1.88-1.6,1.88a1.5,1.5,0,0,1-1.21-.62v.53Zm1.63-.41c.73,0,1.16-.59,1.16-1.38s-.43-1.39-1.16-1.39a1.31,1.31,0,0,0-1.07.58v1.63A1.32,1.32,0,0,0,635.34,375.71Z" transform="translate(0 32.76)"/><path class="cls-30" d="M637.69,377a.81.81,0,0,0,.31.06.51.51,0,0,0,.53-.38l.24-.54-1.5-3.63h.6l1.2,2.94,1.19-2.94h.61l-1.8,4.32a1.08,1.08,0,0,1-1.06.73,1.84,1.84,0,0,1-.41-.05Z" transform="translate(0 32.76)"/></g></g></svg>