<svg id="Layer_1" data-name="Layer 1" xmlns="http://www.w3.org/2000/svg" viewBox="0 0 1920 1080"><defs><style>.cls-1{fill:#fd6466;}.cls-2{fill:#bef9fe;}.cls-3{fill:#31d5cd;}.cls-4{fill:#0088cb;}.cls-5{fill:#046080;}.cls-6{fill:#fefefe;}</style></defs><path class="cls-1" d="M704.08,436c2-3.92,3.17-8.23,6-11.71,5.64-6.84,12.61-11.21,21.62-11.48,4.18-.12,6.67-1.4,7.64-5.81.81-3.68,2.63-7.13,3.78-10.75,1.93-6.08,5.53-10.48,11.8-12.37,8-.9,13.92,2.15,17.54,9.43a21.37,21.37,0,0,1,.29,9.28c-.66,3.32-4.27,7-2.31,9.52,1.8,2.31,6.5.26,9.87.92-13.21,32.68-15,65.86-4.35,99.58-12.3.13-24.61.06-36.91.44-7.84.24-15.14-1.13-22-5-6.61-4.81-10.6-11.41-13-19.07Z"/><path class="cls-1" d="M1165,383.92c6.09,1.86,9.77,6.05,11.65,12,.4,1.27.93,2.5,1.29,3.78,2.15,7.78,4.43,13.77,15.06,14.49,11.22.77,18.16,9.56,21.74,20.3.3.89-.06,2.06,1.14,2.55v52c-2.85,7.36-6.59,14.1-13.14,18.89-4.57,2.36-9.25,4.46-14.46,4.76-4.79.28-9.58.26-14.38.38a161.27,161.27,0,0,0-20.15.09l-9.78-.2a144.67,144.67,0,0,0,3.82-74c-1.9-9.08-5.55-17.58-8-26.46,2.15,0,4.31-.17,6.44,0,3.5.25,4.51-.82,3-4.22-2.16-4.74-3.25-9.7-1.71-14.92C1151.1,386.05,1157,383,1165,383.92Z"/><path class="cls-2" d="M1142,704a236.79,236.79,0,0,1-61.9,49.88c-11.28,6.29-22.76,12.11-35.15,15.94,4.91-16,6.56-32.06,3.26-48.64-7.75-39-39.8-67.81-80.37-72-37.87-3.92-76.18,19.28-91,55-9,21.68-9,43.55-1.75,65.63-19.6-6.57-37.57-16.39-54.55-28a240.51,240.51,0,0,1-38.25-33.07c-1.14-1.19-2.16-2.49-3.24-3.74a8.31,8.31,0,0,0,1.26-1.48,137,137,0,0,1,32.82-41c24.48-20.56,52.56-32.09,84.6-33.38,10.81-.44,21.64-.23,32.46-.32l23.68-.57c12,.83,24,.52,36,.16,2.65.13,5.3.34,7.95.38,13.3.2,26.68-.91,39.85,1.42,44.4,7.86,78.11,31.18,100.72,70.34C1139.19,702,1139.44,704.23,1142,704Z"/><path class="cls-3" d="M930.17,628.79c-10.82.09-21.65-.12-32.46.32-32,1.29-60.12,12.82-84.6,33.38a137,137,0,0,0-32.82,41A8.31,8.31,0,0,1,779,705c-29.38-32.56-49-70.18-58.4-113.06a242.4,242.4,0,0,1-3.5-83.85c6.83,3.87,14.13,5.24,22,5,12.3-.38,24.61-.31,36.91-.44,10.33,29.2,27.71,53.13,53.25,70.86a139,139,0,0,0,68,24.51c11.63,1.05,23.24.22,34.84.9A58.42,58.42,0,0,0,930.17,628.79Z"/><path class="cls-4" d="M875.07,769.84c-7.21-22.08-7.24-44,1.75-65.63,14.81-35.74,53.12-58.94,91-55,40.57,4.2,72.62,33.06,80.37,72,3.3,16.58,1.65,32.68-3.26,48.64-20.61,8-42,12.29-64,14.31-5.49,1.16-6.55-1.49-6.26-6.41.38-6.59,0-13.22,0-19.83.1-9.14.48-18.3.21-27.43-.23-7.76-7.19-13.64-15.13-13.55-7.64.1-14.41,6-14.62,13.56-.25,9.13.12,18.29.21,27.43,0,6.61-.39,13.23,0,19.81.29,4.92-.76,7.58-6.25,6.42C917.13,782.1,895.71,777.74,875.07,769.84ZM978,687a18,18,0,1,0-18.17,17.91A18,18,0,0,0,978,687Z"/><path class="cls-3" d="M1142,704c-2.53.21-2.78-2-3.62-3.5-22.61-39.16-56.32-62.48-100.72-70.34-13.17-2.33-26.55-1.22-39.85-1.42-2.65,0-5.3-.25-7.95-.38.34-6.52.58-13-1.86-19.31,6.49-.05,13-.2,19.48-.13,20.88.2,41-3.43,60.1-12,13.4-6,26-13.43,36.46-23.93,10.13,0,20.25,0,30.38-.13a39.93,39.93,0,0,0,38.7-32.5c1.75-9.05.44-18.2.85-27.3,4.8-.12,9.59-.1,14.38-.38,5.21-.3,9.89-2.4,14.46-4.76,6.6,51.32-2.15,99.93-25.89,145.85C1167.44,672,1155.51,688.58,1142,704Z"/><path class="cls-2" d="M974.66,757.91c0,6.61.4,13.24,0,19.83-.29,4.92.77,7.57,6.26,6.41-1.41,1.27-3.16.83-4.76.83q-16.18.07-32.35,0c-1.61,0-3.36.45-4.76-.83,5.49,1.16,6.54-1.5,6.25-6.42-.38-6.58,0-13.2,0-19.81.5.84,1,1.66,1.5,2.52,4.17,7.95,11.95,10.28,20,6.6C971.07,765.1,972.5,761.32,974.66,757.91Z"/><path class="cls-5" d="M1165,383.92c-8-.89-13.94,2.13-17.55,9.43-28.4-49.07-70.92-75.89-127.54-78C980.36,314,940.68,315,901,315.18A139.06,139.06,0,0,0,850,325.24c-33.87,13.52-59.81,36.12-77.46,68.11C768.89,386.07,763,383,755,383.92c16-29.92,39.27-52.6,68.95-68.68a164.47,164.47,0,0,1,78.9-20.1c38.45-.12,76.93-.9,115.35.18,64.47,1.81,113.05,31.49,146.05,86.81A18.16,18.16,0,0,1,1165,383.92Z"/><path class="cls-2" d="M1104,573c-10.5,10.5-23.06,17.9-36.46,23.93-19.09,8.6-39.22,12.23-60.1,12-6.5-.07-13,.08-19.48.13l-32.1,0-23.78-.19c-11.6-.68-23.21.15-34.84-.9a139,139,0,0,1-68-24.51c-25.54-17.73-42.92-41.66-53.25-70.86-10.68-33.72-8.86-66.9,4.35-99.58a26.46,26.46,0,0,0,1.56-2.53c9.73-20.88,23.47-38.55,41.84-52.53,22.7-17.27,48.28-27.79,76.77-28.57,37.6-1,75.24-.43,112.86-.45a116.21,116.21,0,0,1,15.9,1c37.54,5.17,67.88,22.81,91.68,52.1,7.6,9.35,13.08,20,18.83,30.45,2.48,8.88,6.13,17.38,8,26.46a144.67,144.67,0,0,1-3.82,74,152.51,152.51,0,0,1-20.48,39.51c-1.81.12-3.62.35-5.43.35q-38.53,0-77.08,0l5.57-1.93c26.68-9.41,43.37-27.62,48.38-55.71,2.39-13.35.43-26.92,1-40.37a62.32,62.32,0,0,0-2.23-19.24c-8.46-30.83-35.51-51-63.26-51.49-47.47-.89-95-.93-142.42.15-30.58.69-58.74,27.41-63.07,57.94-2.06,14.59-1,29.27-.88,43.9.3,31.27,24.06,59.52,54.7,66.06,10.73,2.3,21.55,1.44,32.34,1.86-4.65,14.54,5.84,24.92,19.9,24.29,19.6-.88,39.27-.34,58.91-.11,6.15.07,11.47-1.31,16-5.49,4.65.05,9.29.13,13.93.14Z"/><path class="cls-3" d="M1139.8,412.5c-5.75-10.48-11.23-21.1-18.83-30.45-23.8-29.29-54.14-46.93-91.68-52.1a116.21,116.21,0,0,0-15.9-1c-37.62,0-75.26-.58-112.86.45-28.49.78-54.07,11.3-76.77,28.57-18.37,14-32.11,31.65-41.84,52.53a26.46,26.46,0,0,1-1.56,2.53c-3.37-.66-8.07,1.39-9.87-.92-2-2.51,1.65-6.2,2.31-9.52a21.37,21.37,0,0,0-.29-9.28c17.65-32,43.59-54.59,77.46-68.11A139.06,139.06,0,0,1,901,315.18c39.64-.22,79.32-1.21,118.91.22,56.62,2.06,99.14,28.88,127.54,78-1.54,5.22-.45,10.18,1.71,14.92,1.55,3.4.54,4.47-3,4.22C1144.11,412.33,1142,412.48,1139.8,412.5Z"/><path class="cls-5" d="M1104,573l-84.11-.17c-4.64,0-9.28-.09-13.93-.14,4.41-6.14,5.43-12.68,2.33-19.71l32.72-.15q38.55,0,77.08,0c1.81,0,3.62-.23,5.43-.35a37.88,37.88,0,0,0,11.44.33c11.1-.93,18.88-9.52,19-20.67,0-6.32-.08-12.65-.13-19a161.27,161.27,0,0,1,20.15-.09c-.41,9.1.9,18.25-.85,27.3a39.93,39.93,0,0,1-38.7,32.5C1124.26,573,1114.14,573,1104,573Z"/><path class="cls-3" d="M1153.79,513.14c0,6.32.17,12.65.13,19-.07,11.15-7.85,19.74-19,20.67a37.88,37.88,0,0,1-11.44-.33A152.51,152.51,0,0,0,1144,512.94Z"/><path class="cls-4" d="M955.87,609.11l32.1,0c2.44,6.26,2.2,12.79,1.86,19.31-12,.36-24,.67-36-.16C953.76,621.77,954,615.35,955.87,609.11Z"/><path class="cls-5" d="M955.87,609.11c-1.85,6.24-2.11,12.66-2,19.11l-23.68.57a58.42,58.42,0,0,1,1.92-19.87Z"/><path class="cls-6" d="M974.66,757.91c-2.16,3.41-3.59,7.19-7.82,9.13-8.06,3.68-15.84,1.35-20-6.6-.46-.86-1-1.68-1.5-2.52-.09-9.14-.46-18.3-.21-27.43.21-7.53,7-13.46,14.62-13.56,7.94-.09,14.9,5.79,15.13,13.55C975.14,739.61,974.76,748.77,974.66,757.91Z"/><path class="cls-6" d="M978,687a18,18,0,1,1-18-18A18,18,0,0,1,978,687Z"/><path class="cls-4" d="M1041,552.81l-32.72.15c-4.07-6.51-9.84-9.17-17.59-9.06-20,.28-39.94.34-59.91,0-8.67-.16-15.18,2.67-19.64,10.1-10.79-.42-21.61.44-32.34-1.86-30.64-6.54-54.4-34.79-54.7-66.06-.13-14.63-1.18-29.31.88-43.9,4.33-30.53,32.49-57.25,63.07-57.94,47.46-1.08,94.95-1,142.42-.15,27.75.53,54.8,20.66,63.26,51.49A62.32,62.32,0,0,1,1096,454.8c-.58,13.45,1.38,27-1,40.37-5,28.09-21.7,46.3-48.38,55.71Zm-81.1-29.76c10.88-.72,20.73-4.11,28.54-12.15a10.32,10.32,0,0,0,.53-13.26c-3.55-4.1-9.42-5.11-13.42-1.59-9.35,8.24-19.82,9.42-30.46.52-4.84-4.05-10.53-3.19-14.19,1.19-3.3,3.94-2.58,10.3,1.77,14.32C940.33,519.15,949.58,522.31,959.92,523.05ZM933,442.21c.16-2.28-1-4.4-2.7-6.34-14-15.58-42.92-15.54-56.75.1-3.45,3.9-3.59,10.2-.3,13.65,3.82,4,9.47,4.33,13.91.75,10.49-8.48,19.3-8.55,29.46-.13,3.27,2.71,6.84,3.53,10.57,1.52C930.73,449.87,933.12,446.94,933,442.21Zm116,.07a8.46,8.46,0,0,0-2.27-6c-13.34-16.06-43.81-16.11-57.41-.07-3.57,4.21-3.31,9.41.68,13.43s9.05,4.58,12.88.83c8.24-8.07,21.59-8.88,30.36.1,2.67,2.74,6.42,3.18,10.15,1.25S1049.16,447,1049,442.28Z"/><path class="cls-1" d="M911.16,554c4.46-7.43,11-10.26,19.64-10.1,20,.36,40,.3,59.91,0,7.75-.11,13.52,2.55,17.59,9.06,3.1,7,2.08,13.57-2.33,19.71-4.53,4.18-9.85,5.56-16,5.49-19.64-.23-39.31-.77-58.91.11C917,578.9,906.51,568.52,911.16,554Z"/><path class="cls-3" d="M959.92,523.05c-10.34-.74-19.59-3.9-27.23-11-4.35-4-5.07-10.38-1.77-14.32,3.66-4.38,9.35-5.24,14.19-1.19,10.64,8.9,21.11,7.72,30.46-.52,4-3.52,9.87-2.51,13.42,1.59a10.32,10.32,0,0,1-.53,13.26C980.65,518.94,970.8,522.33,959.92,523.05Z"/><path class="cls-3" d="M933,442.21c.1,4.73-2.29,7.66-5.81,9.55-3.73,2-7.3,1.19-10.57-1.52-10.16-8.42-19-8.35-29.46.13-4.44,3.58-10.09,3.28-13.91-.75-3.29-3.45-3.15-9.75.3-13.65,13.83-15.64,42.74-15.68,56.75-.1C932.06,437.81,933.18,439.93,933,442.21Z"/><path class="cls-3" d="M1049,442.28c.13,4.7-1.85,7.62-5.61,9.57s-7.48,1.49-10.15-1.25c-8.77-9-22.12-8.17-30.36-.1-3.83,3.75-9,3.06-12.88-.83s-4.25-9.22-.68-13.43c13.6-16,44.07-16,57.41.07A8.46,8.46,0,0,1,1049,442.28Z"/></svg>